<svg width="60" height="45" viewBox="0 0 28 22" fill="none" xmlns="http://www.w3.org/2000/svg">
<circle cx="11" cy="11" r="10" fill="white" stroke="#FE0000" stroke-width="2"/>
<path d="M6.80552 16.784C5.57727 15.9012 4.66068 14.6515 4.18756 13.2148C3.71445 11.778 3.7092 10.2283 4.17256 8.78835C4.63593 7.34844 5.54404 6.09259 6.76628 5.20142C7.98852 4.31026 9.46191 3.82969 10.9745 3.82885C12.4872 3.82801 13.9611 4.30693 15.1843 5.19673C16.4076 6.08654 17.3171 7.34138 17.782 8.78077C18.247 10.2202 18.2435 11.7699 17.772 13.2072C17.3005 14.6445 16.3852 15.8952 15.158 16.7794" stroke="black" stroke-opacity="0.5"/>
<circle cx="11" cy="11" r="1.5" stroke="black"/>
<path d="M11.9999 9.73673L16.0356 6" stroke="black" stroke-linecap="round"/>
<path d="M28 17.7941C28 20.117 25.9853 22 23.5 22C21.0147 22 19 20.117 19 17.7941C19 15.4713 22.6818 9 23.5 9C24.3182 9 28 15.4713 28 17.7941Z" fill="#00A2F3"/>
</svg>
