<svg width="40" height="50" viewBox="0 0 18 22" fill="none" xmlns="http://www.w3.org/2000/svg">
<circle cx="8.64286" cy="8.64286" r="7.85714" fill="white" stroke="#FE0000" stroke-width="1.57143"/>
<path d="M5.34727 13.1874C4.38221 12.4937 3.66203 11.5119 3.2903 10.383C2.91857 9.25414 2.91444 8.03646 3.27851 6.9051C3.64259 5.77375 4.3561 4.78701 5.31643 4.0868C6.27676 3.3866 7.43443 3.00901 8.62292 3.00835C9.81142 3.00769 10.9695 3.38398 11.9306 4.08312C12.8917 4.78225 13.6063 5.76819 13.9717 6.89915C14.337 8.0301 14.3342 9.24778 13.9638 10.3771C13.5933 11.5063 12.8742 12.489 11.9099 13.1838" stroke="black" stroke-opacity="0.5" stroke-width="0.785714"/>
<circle cx="8.64272" cy="8.64284" r="1.17857" stroke="black" stroke-width="0.785714"/>
<path d="M9.42846 7.65029L12.5994 4.71429" stroke="black" stroke-width="0.785714" stroke-linecap="round"/>
<path fill-rule="evenodd" clip-rule="evenodd" d="M10.2143 16.5H7.07146V18.8571H3.14289C2.70895 18.8571 2.35718 19.2089 2.35718 19.6429V21.2143C2.35718 21.6482 2.70895 22 3.14289 22H13.3572C13.7911 22 14.1429 21.6482 14.1429 21.2143V19.6429C14.1429 19.2089 13.7911 18.8571 13.3572 18.8571H10.2143V16.5Z" fill="#FE0000"/>
</svg>
