<svg width="20" height="52.5" viewBox="0 0 9 22" fill="none" xmlns="http://www.w3.org/2000/svg">
<mask id="path-1-inside-1_150_508" fill="white">
<path fill-rule="evenodd" clip-rule="evenodd" d="M4.125 0C2.9514 0 2 0.951395 2 2.125V14.0887C0.801583 14.8104 0 16.1241 0 17.625C0 19.9032 1.84683 21.75 4.125 21.75C6.40317 21.75 8.25 19.9032 8.25 17.625C8.25 16.1241 7.44842 14.8104 6.25 14.0887V2.125C6.25 0.951395 5.2986 0 4.125 0Z"/>
</mask>
<path fill-rule="evenodd" clip-rule="evenodd" d="M4.125 0C2.9514 0 2 0.951395 2 2.125V14.0887C0.801583 14.8104 0 16.1241 0 17.625C0 19.9032 1.84683 21.75 4.125 21.75C6.40317 21.75 8.25 19.9032 8.25 17.625C8.25 16.1241 7.44842 14.8104 6.25 14.0887V2.125C6.25 0.951395 5.2986 0 4.125 0Z" fill="#FE0000"/>
<path d="M2 14.0887L2.51589 14.9454L3 14.6539V14.0887H2ZM6.25 14.0887H5.25V14.6539L5.73411 14.9454L6.25 14.0887ZM3 2.125C3 1.50368 3.50368 1 4.125 1V-1C2.39911 -1 1 0.39911 1 2.125H3ZM3 14.0887V2.125H1V14.0887H3ZM1 17.625C1 16.4891 1.60538 15.4937 2.51589 14.9454L1.48411 13.2321C-0.0022172 14.1272 -1 15.7591 -1 17.625H1ZM4.125 20.75C2.39911 20.75 1 19.3509 1 17.625H-1C-1 20.4555 1.29454 22.75 4.125 22.75V20.75ZM7.25 17.625C7.25 19.3509 5.85089 20.75 4.125 20.75V22.75C6.95546 22.75 9.25 20.4555 9.25 17.625H7.25ZM5.73411 14.9454C6.64462 15.4937 7.25 16.4891 7.25 17.625H9.25C9.25 15.7591 8.25222 14.1272 6.76589 13.2321L5.73411 14.9454ZM5.25 2.125V14.0887H7.25V2.125H5.25ZM4.125 1C4.74632 1 5.25 1.50368 5.25 2.125H7.25C7.25 0.39911 5.85089 -1 4.125 -1V1Z" fill="white" mask="url(#path-1-inside-1_150_508)"/>
<mask id="path-3-inside-2_150_508" fill="white">
<path d="M2 2.125C2 0.951395 2.95139 0 4.125 0C5.2986 0 6.25 0.951395 6.25 2.125V8H2V2.125Z"/>
</mask>
<path d="M2 2.125C2 0.951395 2.95139 0 4.125 0C5.2986 0 6.25 0.951395 6.25 2.125V8H2V2.125Z" fill="white"/>
<path d="M6.25 8V9H7.25V8H6.25ZM2 8H1V9H2V8ZM5.25 2.125V8H7.25V2.125H5.25ZM6.25 7H2V9H6.25V7ZM3 8V2.125H1V8H3ZM4.125 1C4.74632 1 5.25 1.50368 5.25 2.125H7.25C7.25 0.39911 5.85089 -1 4.125 -1V1ZM4.125 -1C2.39911 -1 1 0.39911 1 2.125H3C3 1.50368 3.50368 1 4.125 1V-1Z" fill="white" mask="url(#path-3-inside-2_150_508)"/>
</svg>
