<svg width="271" height="195" viewBox="0 0 213 154" fill="none" xmlns="http://www.w3.org/2000/svg">
<path d="M5.93806 40V32.1829H7.13669V35.4661H12.0875V32.1829H13.2862V40H12.0875V36.5605H7.13669V40H5.93806ZM14.7429 37.3734V36.3312H17.2027V37.3734H14.7429ZM21.8919 36.7898L19.9116 36.2478C19.2306 36.0602 18.7026 35.81 18.3273 35.4973C17.9591 35.1846 17.7749 34.7365 17.7749 34.1528C17.7749 33.5691 17.9938 33.0966 18.4316 32.7353C18.8763 32.367 19.5503 32.1829 20.4536 32.1829H24.1016V33.2251H20.3181C19.8178 33.2251 19.4704 33.312 19.2758 33.4857C19.0882 33.6594 18.9944 33.8644 18.9944 34.1007C18.9944 34.3717 19.0813 34.5836 19.255 34.7365C19.4356 34.8893 19.7622 35.0318 20.2347 35.1638L22.2151 35.7266C22.903 35.9212 23.4311 36.1818 23.7993 36.5083C24.1746 36.828 24.3622 37.2762 24.3622 37.8529C24.3622 38.4991 24.1433 39.0203 23.7055 39.4163C23.2747 39.8054 22.6146 40 21.7252 40H17.9834V38.9577H21.8398C22.2984 38.9577 22.632 38.8674 22.8404 38.6867C23.0558 38.5061 23.1635 38.2629 23.1635 37.9571C23.1635 37.6375 23.0732 37.3978 22.8925 37.2379C22.7188 37.0712 22.3853 36.9218 21.8919 36.7898ZM33.2207 36.7168C33.2207 37.231 33.1512 37.7 33.0122 38.1239C32.8802 38.5408 32.6752 38.8987 32.3973 39.1974C32.1194 39.4893 31.7615 39.7186 31.3237 39.8853C30.8929 40.0452 30.3787 40.1251 29.7812 40.1251H28.7389C28.1413 40.1251 27.6236 40.0452 27.1859 39.8853C26.7481 39.7186 26.3903 39.4893 26.1123 39.1974C25.8344 38.8987 25.6294 38.5408 25.4974 38.1239C25.3653 37.7 25.2993 37.231 25.2993 36.7168V35.4661C25.2993 34.9449 25.3653 34.4759 25.4974 34.059C25.6294 33.6351 25.8344 33.2738 26.1123 32.975C26.3903 32.6762 26.7481 32.4469 27.1859 32.2871C27.6236 32.1273 28.1413 32.0474 28.7389 32.0474H29.7812C30.3787 32.0474 30.8929 32.1273 31.3237 32.2871C31.7615 32.4469 32.1194 32.6762 32.3973 32.975C32.6752 33.2738 32.8802 33.6351 33.0122 34.059C33.1512 34.4759 33.2207 34.9449 33.2207 35.4661V36.7168ZM26.6022 36.9982C26.6022 37.6931 26.7551 38.2142 27.0608 38.5616C27.3665 38.9091 27.8738 39.0828 28.5825 39.0828H29.9375C30.6532 39.0828 31.1604 38.9091 31.4592 38.5616C31.765 38.2142 31.9178 37.6931 31.9178 36.9982V35.1742C31.9178 34.4724 31.765 33.9513 31.4592 33.6108C31.1604 33.2634 30.6532 33.0896 29.9375 33.0896H28.5825C27.8738 33.0896 27.3665 33.2634 27.0608 33.6108C26.7551 33.9513 26.6022 34.4724 26.6022 35.1742V36.9982ZM34.7332 40V32.1829H40.9974V33.2251H35.9319V35.5077H40.9974V36.55H35.9319V40H34.7332ZM44.7734 40V33.2251H41.6465V32.1829H49.0989V33.2251H45.972V40H44.7734Z" fill="#FEB4C3"/>
<mask id="mask0_180_1621" style="mask-type:alpha" maskUnits="userSpaceOnUse" x="0" y="0" width="56" height="28">
<rect width="56" height="27.6" fill="#D9D9D9"/>
</mask>
<g mask="url(#mask0_180_1621)">
<circle cx="28.0002" cy="28" r="22" transform="rotate(90 28.0002 28)" stroke="black" stroke-width="12"/>
<circle cx="28.2002" cy="27.8" r="18.6" transform="rotate(90 28.2002 27.8)" stroke="#B9AEB1" stroke-width="0.8"/>
<path fill-rule="evenodd" clip-rule="evenodd" d="M14.4 27.8C14.4 28.1499 14.413 28.4967 14.4386 28.84L22.1061 29.0874L22.8015 28.1221C22.8006 28.0815 22.8001 28.0408 22.8001 28C22.8001 27.704 22.8249 27.4138 22.8724 27.1313L22.7024 26.8936L14.4145 27.1609C14.4049 27.3727 14.4 27.5858 14.4 27.8ZM14.5464 29.8172L20.8481 30.8336L17.1129 36.0182C15.7877 34.2334 14.8833 32.1175 14.5464 29.8172ZM18.927 38.0203C18.5089 37.6407 18.1141 37.2358 17.7452 36.808L23.0073 31.1819L24.0186 31.345C24.1659 31.5201 24.3245 31.6853 24.4932 31.8396L24.6307 32.6605L18.927 38.0203ZM24.0186 24.6552L23.6053 24.7218L17.9173 18.5962C18.2896 18.1805 18.6868 17.7876 19.1064 17.4197L24.7367 22.7489L24.5017 24.1528C24.3297 24.3093 24.1683 24.4771 24.0186 24.6552ZM21.4036 25.0769L17.2993 19.3364C15.7921 21.2748 14.7906 23.6259 14.4927 26.1916L21.4036 25.0769ZM28.2 41.6C27.8422 41.6 27.4875 41.5864 27.1365 41.5596L26.8284 33.4992L27.3052 33.154C27.5325 33.1844 27.7645 33.2 28.0001 33.2C28.2641 33.2 28.5234 33.1804 28.7768 33.1424L29.0597 33.3488L28.8431 41.5853C28.6299 41.5951 28.4155 41.6 28.2 41.6ZM19.692 38.666L24.9935 34.8277L26.1006 41.4413C23.7066 41.0759 21.515 40.0954 19.692 38.666ZM29.8657 41.5005L30.9201 34.706L36.5332 38.8009C34.6347 40.2412 32.3519 41.2014 29.8657 41.5005ZM38.5058 36.978C38.1288 37.4009 37.7262 37.8005 37.3004 38.1744L31.268 32.4645L31.3426 31.9837C31.5484 31.8108 31.7407 31.6222 31.9175 31.4199L33.1588 31.2196L38.5058 36.978ZM39.1709 36.1725C40.5594 34.3558 41.5069 32.1841 41.8536 29.8173L35.3743 30.8623L39.1709 36.1725ZM34.1095 29.0933L33.197 27.817C33.193 27.702 33.1853 27.588 33.174 27.475L33.615 26.878L41.9849 27.148C41.9949 27.3641 42 27.5814 42 27.8C42 28.1499 41.987 28.4967 41.9614 28.84L34.1095 29.0933ZM34.9934 25.0119L41.8995 26.1258C41.5953 23.6105 40.6144 21.3036 39.1443 19.3927L34.9934 25.0119ZM32.7381 24.6481L38.508 18.6245C38.1327 18.2032 37.732 17.8051 37.3082 17.4325L31.186 23.0498L31.335 24.01C31.5179 24.1631 31.6902 24.3285 31.8504 24.505L32.7381 24.6481ZM29.7957 14.0913C32.3066 14.3804 34.6123 15.3434 36.5275 16.7948L30.8386 20.8112L29.7957 14.0913ZM29.0435 22.0786L28.0438 22.7843L26.8524 21.9152L27.1535 14.0391C27.4989 14.0132 27.8479 14 28.2 14C28.4116 14 28.6221 14.0048 28.8314 14.0142L29.0435 22.0786ZM25.0914 20.6304L19.8535 16.8093C21.6633 15.4327 23.8234 14.493 26.1767 14.1473L25.0914 20.6304ZM12.4 27.8C12.4 36.5261 19.4739 43.6 28.2 43.6C36.9261 43.6 44 36.5261 44 27.8C44 19.0739 36.9261 12 28.2 12C19.4739 12 12.4 19.0739 12.4 27.8ZM24.8001 27.8001C24.8001 29.6778 26.3223 31.2001 28.2001 31.2001C30.0779 31.2001 31.6001 29.6778 31.6001 27.8001C31.6001 25.9223 30.0779 24.4001 28.2001 24.4001C26.3223 24.4001 24.8001 25.9223 24.8001 27.8001Z" fill="#B9AEB1"/>
<path fill-rule="evenodd" clip-rule="evenodd" d="M25.6 49.4466C14.7859 48.1614 6.4 38.96 6.4 27.8001C6.4 16.6401 14.7859 7.43869 25.6 6.1535V4.14044C13.6787 5.43567 4.4 15.5343 4.4 27.8001C4.4 40.0658 13.6787 50.1644 25.6 51.4597V49.4466ZM30.8 6.1535C41.6141 7.43869 50 16.6401 50 27.8001C50 38.96 41.6141 48.1614 30.8 49.4466V51.4597C42.7213 50.1644 52 40.0658 52 27.8001C52 15.5343 42.7213 5.43567 30.8 4.14044V6.1535Z" fill="#FEB4C3"/>
</g>
<path d="M8.58606 146.79L6.60571 146.248C5.92475 146.06 5.39666 145.81 5.02144 145.497C4.65317 145.185 4.46903 144.736 4.46903 144.153C4.46903 143.569 4.68791 143.097 5.12567 142.735C5.57038 142.367 6.24439 142.183 7.1477 142.183H10.7957V143.225H7.01221C6.51191 143.225 6.16448 143.312 5.96992 143.486C5.78231 143.659 5.6885 143.864 5.6885 144.101C5.6885 144.372 5.77536 144.584 5.94907 144.736C6.12974 144.889 6.45632 145.032 6.92882 145.164L8.90917 145.727C9.59707 145.921 10.1252 146.182 10.4934 146.508C10.8687 146.828 11.0563 147.276 11.0563 147.853C11.0563 148.499 10.8374 149.02 10.3996 149.416C9.96882 149.805 9.30871 150 8.41929 150H4.67749V148.958H8.53394C8.99255 148.958 9.32608 148.867 9.53454 148.687C9.74994 148.506 9.85765 148.263 9.85765 147.957C9.85765 147.637 9.76731 147.398 9.58665 147.238C9.41294 147.071 9.07941 146.922 8.58606 146.79ZM12.0431 147.373V146.331H14.5029V147.373H12.0431ZM15.9614 150V142.183H17.1601V145.466H22.1109V142.183H23.3096V150H22.1109V146.56H17.1601V150H15.9614ZM31.8017 150L30.9054 147.895H26.5278L25.6314 150H24.3494L27.2991 143.329C27.4658 142.954 27.643 142.648 27.8306 142.412C28.0252 142.169 28.324 142.047 28.727 142.047C29.1231 142.047 29.4184 142.162 29.6129 142.391C29.8145 142.621 29.9847 142.895 30.1237 143.215L33.1046 150H31.8017ZM28.4039 143.475L26.9968 146.79H30.4364L29.0293 143.486C28.9806 143.361 28.932 143.277 28.8833 143.236C28.8347 143.187 28.7791 143.163 28.7166 143.163C28.654 143.163 28.5985 143.183 28.5498 143.225C28.5081 143.26 28.4595 143.343 28.4039 143.475ZM40.9254 150H39.4454L36.381 146.654C36.2768 146.543 36.2039 146.418 36.1622 146.279C36.1274 146.14 36.1274 146.012 36.1622 145.893C36.1969 145.782 36.2699 145.688 36.381 145.612C36.4992 145.529 36.6451 145.487 36.8188 145.487H38.622C39.0736 145.487 39.3863 145.417 39.56 145.278C39.7407 145.139 39.831 144.882 39.831 144.507V144.184C39.831 143.809 39.7407 143.555 39.56 143.423C39.3863 143.291 39.0736 143.225 38.622 143.225H35.3492V150H34.1506V142.183H38.3614C38.7436 142.183 39.0979 142.214 39.4245 142.277C39.7581 142.339 40.0464 142.447 40.2896 142.6C40.5328 142.753 40.7204 142.961 40.8525 143.225C40.9914 143.482 41.0609 143.809 41.0609 144.205V144.486C41.0609 145.278 40.8177 145.813 40.3313 146.091C39.8519 146.369 39.1778 146.508 38.3093 146.508H37.7152L40.9254 150ZM46.0611 142.183C47.2285 142.183 48.1283 142.471 48.7606 143.048C49.3929 143.625 49.7091 144.431 49.7091 145.466V146.717C49.7091 147.752 49.3964 148.558 48.7711 149.135C48.1526 149.712 47.2319 150 46.009 150H42.5173V142.183H46.0611ZM46.2175 143.225H43.716V148.958H46.1653C46.888 148.958 47.4404 148.808 47.8226 148.51C48.2117 148.204 48.4063 147.7 48.4063 146.998V145.174C48.4063 144.472 48.2152 143.972 47.833 143.673C47.4578 143.375 46.9193 143.225 46.2175 143.225Z" fill="#FF7F3E"/>
<mask id="mask1_180_1621" style="mask-type:alpha" maskUnits="userSpaceOnUse" x="0" y="110" width="56" height="28">
<rect y="110" width="56" height="27.6" fill="#D9D9D9"/>
</mask>
<g mask="url(#mask1_180_1621)">
<circle cx="28.0002" cy="138" r="22" transform="rotate(90 28.0002 138)" stroke="black" stroke-width="12"/>
<circle cx="28.2002" cy="137.8" r="18.6" transform="rotate(90 28.2002 137.8)" stroke="#B9AEB1" stroke-width="0.8"/>
<path fill-rule="evenodd" clip-rule="evenodd" d="M14.4 137.8C14.4 138.15 14.413 138.497 14.4386 138.84L22.1061 139.087L22.8015 138.122C22.8006 138.082 22.8001 138.041 22.8001 138C22.8001 137.704 22.8249 137.414 22.8724 137.131L22.7024 136.894L14.4145 137.161C14.4049 137.373 14.4 137.586 14.4 137.8ZM14.5464 139.817L20.8481 140.834L17.1129 146.018C15.7877 144.233 14.8833 142.117 14.5464 139.817ZM18.927 148.02C18.5089 147.641 18.1141 147.236 17.7452 146.808L23.0073 141.182L24.0186 141.345C24.1659 141.52 24.3245 141.685 24.4932 141.84L24.6307 142.66L18.927 148.02ZM24.0186 134.655L23.6053 134.722L17.9173 128.596C18.2896 128.181 18.6868 127.788 19.1064 127.42L24.7367 132.749L24.5017 134.153C24.3297 134.309 24.1683 134.477 24.0186 134.655ZM21.4036 135.077L17.2993 129.336C15.7921 131.275 14.7906 133.626 14.4927 136.192L21.4036 135.077ZM28.2 151.6C27.8422 151.6 27.4875 151.586 27.1365 151.56L26.8284 143.499L27.3052 143.154C27.5325 143.184 27.7645 143.2 28.0001 143.2C28.2641 143.2 28.5234 143.18 28.7768 143.142L29.0597 143.349L28.8431 151.585C28.6299 151.595 28.4155 151.6 28.2 151.6ZM19.692 148.666L24.9935 144.828L26.1006 151.441C23.7066 151.076 21.515 150.095 19.692 148.666ZM29.8657 151.5L30.9201 144.706L36.5332 148.801C34.6347 150.241 32.3519 151.201 29.8657 151.5ZM38.5058 146.978C38.1288 147.401 37.7262 147.801 37.3004 148.174L31.268 142.464L31.3426 141.984C31.5484 141.811 31.7407 141.622 31.9175 141.42L33.1588 141.22L38.5058 146.978ZM39.1709 146.173C40.5594 144.356 41.5069 142.184 41.8536 139.817L35.3743 140.862L39.1709 146.173ZM34.1095 139.093L33.197 137.817C33.193 137.702 33.1853 137.588 33.174 137.475L33.615 136.878L41.9849 137.148C41.9949 137.364 42 137.581 42 137.8C42 138.15 41.987 138.497 41.9614 138.84L34.1095 139.093ZM34.9934 135.012L41.8995 136.126C41.5953 133.61 40.6144 131.304 39.1443 129.393L34.9934 135.012ZM32.7381 134.648L38.508 128.625C38.1327 128.203 37.732 127.805 37.3082 127.432L31.186 133.05L31.335 134.01C31.5179 134.163 31.6902 134.329 31.8504 134.505L32.7381 134.648ZM29.7957 124.091C32.3066 124.38 34.6123 125.343 36.5275 126.795L30.8386 130.811L29.7957 124.091ZM29.0435 132.079L28.0438 132.784L26.8524 131.915L27.1535 124.039C27.4989 124.013 27.8479 124 28.2 124C28.4116 124 28.6221 124.005 28.8314 124.014L29.0435 132.079ZM25.0914 130.63L19.8535 126.809C21.6633 125.433 23.8234 124.493 26.1767 124.147L25.0914 130.63ZM12.4 137.8C12.4 146.526 19.4739 153.6 28.2 153.6C36.9261 153.6 44 146.526 44 137.8C44 129.074 36.9261 122 28.2 122C19.4739 122 12.4 129.074 12.4 137.8ZM24.8001 137.8C24.8001 139.678 26.3223 141.2 28.2001 141.2C30.0779 141.2 31.6001 139.678 31.6001 137.8C31.6001 135.922 30.0779 134.4 28.2001 134.4C26.3223 134.4 24.8001 135.922 24.8001 137.8Z" fill="#B9AEB1"/>
<path fill-rule="evenodd" clip-rule="evenodd" d="M25.6 159.447C14.7859 158.161 6.4 148.96 6.4 137.8C6.4 126.64 14.7859 117.439 25.6 116.153V114.14C13.6787 115.436 4.4 125.534 4.4 137.8C4.4 150.066 13.6787 160.164 25.6 161.46V159.447ZM30.8 116.153C41.6141 117.439 50 126.64 50 137.8C50 148.96 41.6141 158.161 30.8 159.447V161.46C42.7213 160.164 52 150.066 52 137.8C52 125.534 42.7213 115.436 30.8 114.14V116.153Z" fill="#FF7F3E"/>
</g>
<path d="M86.8565 40.1355C85.842 40.1355 85.1019 39.9305 84.6364 39.5205C84.1708 39.1106 83.9381 38.4609 83.9381 37.5715V32.1829H85.1367V37.6549C85.1367 38.1413 85.2583 38.5026 85.5015 38.7388C85.7516 38.9751 86.1373 39.0932 86.6584 39.0932H88.5345C89.0279 39.0932 89.3996 38.9751 89.6498 38.7388C89.9069 38.5026 90.0354 38.1413 90.0354 37.6549V32.1829H91.2341V37.5715C91.2341 38.4609 90.9978 39.1106 90.5253 39.5205C90.0528 39.9305 89.2815 40.1355 88.2114 40.1355H86.8565ZM92.692 37.3734V36.3312H95.1518V37.3734H92.692ZM99.8411 36.7898L97.8607 36.2478C97.1798 36.0602 96.6517 35.81 96.2764 35.4973C95.9082 35.1846 95.724 34.7365 95.724 34.1528C95.724 33.5691 95.9429 33.0966 96.3807 32.7353C96.8254 32.367 97.4994 32.1829 98.4027 32.1829H102.051V33.2251H98.2672C97.7669 33.2251 97.4195 33.312 97.2249 33.4857C97.0373 33.6594 96.9435 33.8644 96.9435 34.1007C96.9435 34.3717 97.0304 34.5836 97.2041 34.7365C97.3847 34.8893 97.7113 35.0318 98.1838 35.1638L100.164 35.7266C100.852 35.9212 101.38 36.1818 101.748 36.5083C102.124 36.828 102.311 37.2762 102.311 37.8529C102.311 38.4991 102.092 39.0203 101.655 39.4163C101.224 39.8054 100.564 40 99.6743 40H95.9325V38.9577H99.7889C100.248 38.9577 100.581 38.8674 100.79 38.6867C101.005 38.5061 101.113 38.2629 101.113 37.9571C101.113 37.6375 101.022 37.3978 100.842 37.2379C100.668 37.0712 100.334 36.9218 99.8411 36.7898ZM111.17 36.7168C111.17 37.231 111.1 37.7 110.961 38.1239C110.829 38.5408 110.624 38.8987 110.346 39.1974C110.068 39.4893 109.711 39.7186 109.273 39.8853C108.842 40.0452 108.328 40.1251 107.73 40.1251H106.688C106.09 40.1251 105.573 40.0452 105.135 39.8853C104.697 39.7186 104.339 39.4893 104.061 39.1974C103.783 38.8987 103.578 38.5408 103.446 38.1239C103.314 37.7 103.248 37.231 103.248 36.7168V35.4661C103.248 34.9449 103.314 34.4759 103.446 34.059C103.578 33.6351 103.783 33.2738 104.061 32.975C104.339 32.6762 104.697 32.4469 105.135 32.2871C105.573 32.1273 106.09 32.0474 106.688 32.0474H107.73C108.328 32.0474 108.842 32.1273 109.273 32.2871C109.711 32.4469 110.068 32.6762 110.346 32.975C110.624 33.2738 110.829 33.6351 110.961 34.059C111.1 34.4759 111.17 34.9449 111.17 35.4661V36.7168ZM104.551 36.9982C104.551 37.6931 104.704 38.2142 105.01 38.5616C105.316 38.9091 105.823 39.0828 106.532 39.0828H107.887C108.602 39.0828 109.11 38.9091 109.408 38.5616C109.714 38.2142 109.867 37.6931 109.867 36.9982V35.1742C109.867 34.4724 109.714 33.9513 109.408 33.6108C109.11 33.2634 108.602 33.0896 107.887 33.0896H106.532C105.823 33.0896 105.316 33.2634 105.01 33.6108C104.704 33.9513 104.551 34.4724 104.551 35.1742V36.9982ZM112.682 40V32.1829H118.946V33.2251H113.881V35.5077H118.946V36.55H113.881V40H112.682ZM122.722 40V33.2251H119.596V32.1829H127.048V33.2251H123.921V40H122.722Z" fill="#B24BA6"/>
<mask id="mask2_180_1621" style="mask-type:alpha" maskUnits="userSpaceOnUse" x="78" y="0" width="56" height="28">
<rect x="78" width="56" height="27.6" fill="#D9D9D9"/>
</mask>
<g mask="url(#mask2_180_1621)">
<circle cx="106" cy="28" r="22" transform="rotate(90 106 28)" stroke="black" stroke-width="12"/>
<circle cx="106.2" cy="27.8" r="18.6" transform="rotate(90 106.2 27.8)" stroke="#B9AEB1" stroke-width="0.8"/>
<path fill-rule="evenodd" clip-rule="evenodd" d="M92.4 27.8C92.4 28.1499 92.413 28.4967 92.4386 28.84L100.106 29.0874L100.802 28.1221C100.801 28.0815 100.8 28.0408 100.8 28C100.8 27.704 100.825 27.4138 100.872 27.1313L100.702 26.8936L92.4145 27.1609C92.4049 27.3727 92.4 27.5858 92.4 27.8ZM92.5464 29.8172L98.8481 30.8336L95.1129 36.0182C93.7877 34.2334 92.8833 32.1175 92.5464 29.8172ZM96.927 38.0203C96.5089 37.6407 96.1141 37.2358 95.7452 36.808L101.007 31.1819L102.019 31.345C102.166 31.5201 102.324 31.6853 102.493 31.8396L102.631 32.6605L96.927 38.0203ZM102.019 24.6552L101.605 24.7218L95.9173 18.5962C96.2896 18.1805 96.6868 17.7876 97.1064 17.4197L102.737 22.7489L102.502 24.1528C102.33 24.3093 102.168 24.4771 102.019 24.6552ZM99.4036 25.0769L95.2993 19.3364C93.7921 21.2748 92.7906 23.6259 92.4927 26.1916L99.4036 25.0769ZM106.2 41.6C105.842 41.6 105.487 41.5864 105.136 41.5596L104.828 33.4992L105.305 33.154C105.533 33.1844 105.764 33.2 106 33.2C106.264 33.2 106.523 33.1804 106.777 33.1424L107.06 33.3488L106.843 41.5853C106.63 41.5951 106.416 41.6 106.2 41.6ZM97.692 38.666L102.993 34.8277L104.101 41.4413C101.707 41.0759 99.515 40.0954 97.692 38.666ZM107.866 41.5005L108.92 34.706L114.533 38.8009C112.635 40.2412 110.352 41.2014 107.866 41.5005ZM116.506 36.978C116.129 37.4009 115.726 37.8005 115.3 38.1744L109.268 32.4645L109.343 31.9837C109.548 31.8108 109.741 31.6222 109.917 31.4199L111.159 31.2196L116.506 36.978ZM117.171 36.1725C118.559 34.3558 119.507 32.1841 119.854 29.8173L113.374 30.8623L117.171 36.1725ZM112.11 29.0933L111.197 27.817C111.193 27.702 111.185 27.588 111.174 27.475L111.615 26.878L119.985 27.148C119.995 27.3641 120 27.5814 120 27.8C120 28.1499 119.987 28.4967 119.961 28.84L112.11 29.0933ZM112.993 25.0119L119.899 26.1258C119.595 23.6105 118.614 21.3036 117.144 19.3927L112.993 25.0119ZM110.738 24.6481L116.508 18.6245C116.133 18.2032 115.732 17.8051 115.308 17.4325L109.186 23.0498L109.335 24.01C109.518 24.1631 109.69 24.3285 109.85 24.505L110.738 24.6481ZM107.796 14.0913C110.307 14.3804 112.612 15.3434 114.527 16.7948L108.839 20.8112L107.796 14.0913ZM107.043 22.0786L106.044 22.7843L104.852 21.9152L105.153 14.0391C105.499 14.0132 105.848 14 106.2 14C106.412 14 106.622 14.0048 106.831 14.0142L107.043 22.0786ZM103.091 20.6304L97.8535 16.8093C99.6633 15.4327 101.823 14.493 104.177 14.1473L103.091 20.6304ZM90.4 27.8C90.4 36.5261 97.4739 43.6 106.2 43.6C114.926 43.6 122 36.5261 122 27.8C122 19.0739 114.926 12 106.2 12C97.4739 12 90.4 19.0739 90.4 27.8ZM102.8 27.8001C102.8 29.6778 104.322 31.2001 106.2 31.2001C108.078 31.2001 109.6 29.6778 109.6 27.8001C109.6 25.9223 108.078 24.4001 106.2 24.4001C104.322 24.4001 102.8 25.9223 102.8 27.8001Z" fill="#B9AEB1"/>
<path fill-rule="evenodd" clip-rule="evenodd" d="M103.6 49.4466C92.7859 48.1614 84.4 38.96 84.4 27.8001C84.4 16.6401 92.7859 7.43869 103.6 6.1535V4.14044C91.6787 5.43567 82.4 15.5343 82.4 27.8001C82.4 40.0658 91.6787 50.1644 103.6 51.4597V49.4466ZM108.8 6.1535C119.614 7.43869 128 16.6401 128 27.8001C128 38.96 119.614 48.1614 108.8 49.4466V51.4597C120.721 50.1644 130 40.0658 130 27.8001C130 15.5343 120.721 5.43567 108.8 4.14044V6.1535Z" fill="#B24BA6"/>
</g>
<path d="M79.469 95L80.6677 88.4336C80.751 87.975 80.897 87.631 81.1054 87.4017C81.3139 87.1655 81.6161 87.0474 82.0122 87.0474C82.45 87.0474 82.7731 87.1898 82.9815 87.4747C83.1969 87.7526 83.3533 88.1001 83.4506 88.517L84.7221 93.8848C84.743 93.9751 84.7638 94.048 84.7847 94.1036C84.8125 94.1523 84.8542 94.1766 84.9098 94.1766C84.9723 94.1766 85.014 94.1523 85.0348 94.1036C85.0557 94.055 85.0765 93.9855 85.0974 93.8952L86.3898 88.517C86.4871 88.1001 86.6504 87.7526 86.8797 87.4747C87.109 87.1898 87.4286 87.0474 87.8386 87.0474C88.2694 87.0474 88.589 87.1655 88.7975 87.4017C89.0129 87.631 89.1623 87.975 89.2457 88.4336L90.4235 95H89.1519L88.0679 88.3815C88.054 88.2773 88.0297 88.2043 87.9949 88.1626C87.9602 88.1209 87.915 88.1001 87.8594 88.1001C87.7969 88.1001 87.7448 88.1209 87.7031 88.1626C87.6614 88.2043 87.6267 88.2807 87.5989 88.3919L86.3273 93.7493C86.223 94.194 86.0667 94.5379 85.8582 94.7811C85.6567 95.0174 85.3406 95.1355 84.9098 95.1355C84.4651 95.1355 84.1454 95.0069 83.9509 94.7499C83.7563 94.4858 83.6139 94.1662 83.5235 93.7909L82.2624 88.4023C82.2346 88.2842 82.2033 88.2043 82.1685 88.1626C82.1338 88.1209 82.0852 88.1001 82.0226 88.1001C81.967 88.1001 81.9184 88.1209 81.8767 88.1626C81.835 88.2043 81.8072 88.2773 81.7933 88.3815L80.6885 95H79.469ZM91.8266 95V87.1829H98.0908V88.2251H93.0253V90.5077H98.0908V91.55H93.0253V93.9577H98.0908V95H91.8266ZM99.5216 89.4029H100.72V93.9577H103.17C103.892 93.9577 104.445 93.8083 104.827 93.5095C105.216 93.2038 105.411 92.7 105.411 91.9982V90.1742C105.411 89.4724 105.219 88.9721 104.837 88.6733C104.462 88.3745 103.924 88.2251 103.222 88.2251H97.0201V87.1829H103.065C104.233 87.1829 105.133 87.4712 105.765 88.048C106.397 88.6247 106.713 89.4307 106.713 90.4661V91.7168C106.713 92.7521 106.401 93.5582 105.775 94.1349C105.157 94.7116 104.236 95 103.013 95H99.5216V89.4029ZM108.125 95V87.1829H109.324V95H108.125ZM114.227 95.1355C113.212 95.1355 112.472 94.9305 112.007 94.5205C111.541 94.1106 111.308 93.4609 111.308 92.5715V87.1829H112.507V92.6549C112.507 93.1413 112.629 93.5026 112.872 93.7388C113.122 93.9751 113.508 94.0932 114.029 94.0932H115.905C116.398 94.0932 116.77 93.9751 117.02 93.7388C117.277 93.5026 117.406 93.1413 117.406 92.6549V87.1829H118.604V92.5715C118.604 93.4609 118.368 94.1106 117.896 94.5205C117.423 94.9305 116.652 95.1355 115.582 95.1355H114.227ZM120.01 95L121.209 88.4336C121.292 87.975 121.438 87.631 121.647 87.4017C121.855 87.1655 122.157 87.0474 122.553 87.0474C122.991 87.0474 123.314 87.1898 123.523 87.4747C123.738 87.7526 123.895 88.1001 123.992 88.517L125.263 93.8848C125.284 93.9751 125.305 94.048 125.326 94.1036C125.354 94.1523 125.395 94.1766 125.451 94.1766C125.514 94.1766 125.555 94.1523 125.576 94.1036C125.597 94.055 125.618 93.9855 125.639 93.8952L126.931 88.517C127.028 88.1001 127.192 87.7526 127.421 87.4747C127.65 87.1898 127.97 87.0474 128.38 87.0474C128.811 87.0474 129.13 87.1655 129.339 87.4017C129.554 87.631 129.704 87.975 129.787 88.4336L130.965 95H129.693L128.609 88.3815C128.595 88.2773 128.571 88.2043 128.536 88.1626C128.501 88.1209 128.456 88.1001 128.401 88.1001C128.338 88.1001 128.286 88.1209 128.244 88.1626C128.203 88.2043 128.168 88.2807 128.14 88.3919L126.869 93.7493C126.764 94.194 126.608 94.5379 126.399 94.7811C126.198 95.0174 125.882 95.1355 125.451 95.1355C125.006 95.1355 124.687 95.0069 124.492 94.7499C124.298 94.4858 124.155 94.1662 124.065 93.7909L122.804 88.4023C122.776 88.2842 122.745 88.2043 122.71 88.1626C122.675 88.1209 122.626 88.1001 122.564 88.1001C122.508 88.1001 122.46 88.1209 122.418 88.1626C122.376 88.2043 122.348 88.2773 122.335 88.3815L121.23 95H120.01Z" fill="#F5F5F5"/>
<mask id="mask3_180_1621" style="mask-type:alpha" maskUnits="userSpaceOnUse" x="78" y="55" width="56" height="28">
<rect x="78" y="55" width="56" height="27.6" fill="#D9D9D9"/>
</mask>
<g mask="url(#mask3_180_1621)">
<circle cx="106" cy="83" r="22" transform="rotate(90 106 83)" stroke="black" stroke-width="12"/>
<circle cx="106.2" cy="82.8" r="18.6" transform="rotate(90 106.2 82.8)" stroke="#B9AEB1" stroke-width="0.8"/>
<path fill-rule="evenodd" clip-rule="evenodd" d="M92.4 82.8C92.4 83.1499 92.413 83.4967 92.4386 83.84L100.106 84.0874L100.802 83.1221C100.801 83.0815 100.8 83.0408 100.8 83C100.8 82.704 100.825 82.4138 100.872 82.1313L100.702 81.8936L92.4145 82.1609C92.4049 82.3727 92.4 82.5858 92.4 82.8ZM92.5464 84.8172L98.8481 85.8336L95.1129 91.0182C93.7877 89.2334 92.8833 87.1175 92.5464 84.8172ZM96.927 93.0203C96.5089 92.6407 96.1141 92.2358 95.7452 91.808L101.007 86.1819L102.019 86.345C102.166 86.5201 102.324 86.6853 102.493 86.8396L102.631 87.6605L96.927 93.0203ZM102.019 79.6552L101.605 79.7218L95.9173 73.5962C96.2896 73.1805 96.6868 72.7876 97.1064 72.4197L102.737 77.7489L102.502 79.1528C102.33 79.3093 102.168 79.4771 102.019 79.6552ZM99.4036 80.0769L95.2993 74.3364C93.7921 76.2748 92.7906 78.6259 92.4927 81.1916L99.4036 80.0769ZM106.2 96.6C105.842 96.6 105.487 96.5864 105.136 96.5596L104.828 88.4992L105.305 88.154C105.533 88.1844 105.764 88.2 106 88.2C106.264 88.2 106.523 88.1804 106.777 88.1424L107.06 88.3488L106.843 96.5853C106.63 96.5951 106.416 96.6 106.2 96.6ZM97.692 93.666L102.993 89.8277L104.101 96.4413C101.707 96.0759 99.515 95.0954 97.692 93.666ZM107.866 96.5005L108.92 89.706L114.533 93.8009C112.635 95.2412 110.352 96.2014 107.866 96.5005ZM116.506 91.978C116.129 92.4009 115.726 92.8005 115.3 93.1744L109.268 87.4645L109.343 86.9837C109.548 86.8108 109.741 86.6222 109.917 86.4199L111.159 86.2196L116.506 91.978ZM117.171 91.1725C118.559 89.3558 119.507 87.1841 119.854 84.8173L113.374 85.8623L117.171 91.1725ZM112.11 84.0933L111.197 82.817C111.193 82.702 111.185 82.588 111.174 82.475L111.615 81.878L119.985 82.148C119.995 82.3641 120 82.5814 120 82.8C120 83.1499 119.987 83.4967 119.961 83.84L112.11 84.0933ZM112.993 80.0119L119.899 81.1258C119.595 78.6105 118.614 76.3036 117.144 74.3927L112.993 80.0119ZM110.738 79.6481L116.508 73.6245C116.133 73.2032 115.732 72.8051 115.308 72.4325L109.186 78.0498L109.335 79.01C109.518 79.1631 109.69 79.3285 109.85 79.505L110.738 79.6481ZM107.796 69.0913C110.307 69.3804 112.612 70.3434 114.527 71.7948L108.839 75.8112L107.796 69.0913ZM107.043 77.0786L106.044 77.7843L104.852 76.9152L105.153 69.0391C105.499 69.0132 105.848 69 106.2 69C106.412 69 106.622 69.0048 106.831 69.0142L107.043 77.0786ZM103.091 75.6304L97.8535 71.8093C99.6633 70.4327 101.823 69.493 104.177 69.1473L103.091 75.6304ZM90.4 82.8C90.4 91.5261 97.4739 98.6 106.2 98.6C114.926 98.6 122 91.5261 122 82.8C122 74.0739 114.926 67 106.2 67C97.4739 67 90.4 74.0739 90.4 82.8ZM102.8 82.8001C102.8 84.6778 104.322 86.2001 106.2 86.2001C108.078 86.2001 109.6 84.6778 109.6 82.8001C109.6 80.9223 108.078 79.4001 106.2 79.4001C104.322 79.4001 102.8 80.9223 102.8 82.8001Z" fill="#B9AEB1"/>
<path fill-rule="evenodd" clip-rule="evenodd" d="M103.6 104.447C92.7859 103.161 84.4 93.96 84.4 82.8001C84.4 71.6401 92.7859 62.4387 103.6 61.1535V59.1404C91.6787 60.4357 82.4 70.5343 82.4 82.8001C82.4 95.0658 91.6787 105.164 103.6 106.46V104.447ZM108.8 61.1535C119.614 62.4387 128 71.6401 128 82.8001C128 93.96 119.614 103.161 108.8 104.447V106.46C120.721 105.164 130 95.0658 130 82.8001C130 70.5343 120.721 60.4357 108.8 59.1404V61.1535Z" fill="#F5F5F5"/>
</g>
<path d="M166.586 36.7898L164.606 36.2478C163.925 36.0602 163.397 35.81 163.021 35.4973C162.653 35.1846 162.469 34.7365 162.469 34.1528C162.469 33.5691 162.688 33.0966 163.126 32.7353C163.57 32.367 164.244 32.1829 165.148 32.1829H168.796V33.2251H165.012C164.512 33.2251 164.164 33.312 163.97 33.4857C163.782 33.6594 163.689 33.8644 163.689 34.1007C163.689 34.3717 163.775 34.5836 163.949 34.7365C164.13 34.8893 164.456 35.0318 164.929 35.1638L166.909 35.7266C167.597 35.9212 168.125 36.1818 168.493 36.5083C168.869 36.828 169.056 37.2762 169.056 37.8529C169.056 38.4991 168.837 39.0203 168.4 39.4163C167.969 39.8054 167.309 40 166.419 40H162.677V38.9577H166.534C166.993 38.9577 167.326 38.8674 167.535 38.6867C167.75 38.5061 167.858 38.2629 167.858 37.9571C167.858 37.6375 167.767 37.3978 167.587 37.2379C167.413 37.0712 167.079 36.9218 166.586 36.7898ZM170.043 37.3734V36.3312H172.503V37.3734H170.043ZM177.192 36.7898L175.212 36.2478C174.531 36.0602 174.003 35.81 173.628 35.4973C173.259 35.1846 173.075 34.7365 173.075 34.1528C173.075 33.5691 173.294 33.0966 173.732 32.7353C174.176 32.367 174.85 32.1829 175.754 32.1829H179.402V33.2251H175.618C175.118 33.2251 174.771 33.312 174.576 33.4857C174.388 33.6594 174.295 33.8644 174.295 34.1007C174.295 34.3717 174.381 34.5836 174.555 34.7365C174.736 34.8893 175.062 35.0318 175.535 35.1638L177.515 35.7266C178.203 35.9212 178.731 36.1818 179.1 36.5083C179.475 36.828 179.662 37.2762 179.662 37.8529C179.662 38.4991 179.443 39.0203 179.006 39.4163C178.575 39.8054 177.915 40 177.025 40H173.284V38.9577H177.14C177.599 38.9577 177.932 38.8674 178.141 38.6867C178.356 38.5061 178.464 38.2629 178.464 37.9571C178.464 37.6375 178.373 37.3978 178.193 37.2379C178.019 37.0712 177.685 36.9218 177.192 36.7898ZM188.521 36.7168C188.521 37.231 188.451 37.7 188.312 38.1239C188.18 38.5408 187.975 38.8987 187.697 39.1974C187.42 39.4893 187.062 39.7186 186.624 39.8853C186.193 40.0452 185.679 40.1251 185.081 40.1251H184.039C183.441 40.1251 182.924 40.0452 182.486 39.8853C182.048 39.7186 181.69 39.4893 181.412 39.1974C181.135 38.8987 180.93 38.5408 180.798 38.1239C180.666 37.7 180.6 37.231 180.6 36.7168V35.4661C180.6 34.9449 180.666 34.4759 180.798 34.059C180.93 33.6351 181.135 33.2738 181.412 32.975C181.69 32.6762 182.048 32.4469 182.486 32.2871C182.924 32.1273 183.441 32.0474 184.039 32.0474H185.081C185.679 32.0474 186.193 32.1273 186.624 32.2871C187.062 32.4469 187.42 32.6762 187.697 32.975C187.975 33.2738 188.18 33.6351 188.312 34.059C188.451 34.4759 188.521 34.9449 188.521 35.4661V36.7168ZM181.902 36.9982C181.902 37.6931 182.055 38.2142 182.361 38.5616C182.667 38.9091 183.174 39.0828 183.883 39.0828H185.238C185.953 39.0828 186.461 38.9091 186.759 38.5616C187.065 38.2142 187.218 37.6931 187.218 36.9982V35.1742C187.218 34.4724 187.065 33.9513 186.759 33.6108C186.461 33.2634 185.953 33.0896 185.238 33.0896H183.883C183.174 33.0896 182.667 33.2634 182.361 33.6108C182.055 33.9513 181.902 34.4724 181.902 35.1742V36.9982ZM190.033 40V32.1829H196.298V33.2251H191.232V35.5077H196.298V36.55H191.232V40H190.033ZM200.074 40V33.2251H196.947V32.1829H204.399V33.2251H201.272V40H200.074Z" fill="#FF0000"/>
<mask id="mask4_180_1621" style="mask-type:alpha" maskUnits="userSpaceOnUse" x="156" y="0" width="56" height="28">
<rect x="156" width="56" height="27.6" fill="#D9D9D9"/>
</mask>
<g mask="url(#mask4_180_1621)">
<circle cx="184" cy="28" r="22" transform="rotate(90 184 28)" stroke="black" stroke-width="12"/>
<circle cx="184.2" cy="27.8" r="18.6" transform="rotate(90 184.2 27.8)" stroke="#B9AEB1" stroke-width="0.8"/>
<path fill-rule="evenodd" clip-rule="evenodd" d="M170.4 27.8C170.4 28.1499 170.413 28.4967 170.439 28.84L178.106 29.0874L178.802 28.1221C178.801 28.0815 178.8 28.0408 178.8 28C178.8 27.704 178.825 27.4138 178.872 27.1313L178.702 26.8936L170.415 27.1609C170.405 27.3727 170.4 27.5858 170.4 27.8ZM170.546 29.8172L176.848 30.8336L173.113 36.0182C171.788 34.2334 170.883 32.1175 170.546 29.8172ZM174.927 38.0203C174.509 37.6407 174.114 37.2358 173.745 36.808L179.007 31.1819L180.019 31.345C180.166 31.5201 180.324 31.6853 180.493 31.8396L180.631 32.6605L174.927 38.0203ZM180.019 24.6552L179.605 24.7218L173.917 18.5962C174.29 18.1805 174.687 17.7876 175.106 17.4197L180.737 22.7489L180.502 24.1528C180.33 24.3093 180.168 24.4771 180.019 24.6552ZM177.404 25.0769L173.299 19.3364C171.792 21.2748 170.791 23.6259 170.493 26.1916L177.404 25.0769ZM184.2 41.6C183.842 41.6 183.487 41.5864 183.136 41.5596L182.828 33.4992L183.305 33.154C183.533 33.1844 183.764 33.2 184 33.2C184.264 33.2 184.523 33.1804 184.777 33.1424L185.06 33.3488L184.843 41.5853C184.63 41.5951 184.416 41.6 184.2 41.6ZM175.692 38.666L180.993 34.8277L182.101 41.4413C179.707 41.0759 177.515 40.0954 175.692 38.666ZM185.866 41.5005L186.92 34.706L192.533 38.8009C190.635 40.2412 188.352 41.2014 185.866 41.5005ZM194.506 36.978C194.129 37.4009 193.726 37.8005 193.3 38.1744L187.268 32.4645L187.343 31.9837C187.548 31.8108 187.741 31.6222 187.917 31.4199L189.159 31.2196L194.506 36.978ZM195.171 36.1725C196.559 34.3558 197.507 32.1841 197.854 29.8173L191.374 30.8623L195.171 36.1725ZM190.11 29.0933L189.197 27.817C189.193 27.702 189.185 27.588 189.174 27.475L189.615 26.878L197.985 27.148C197.995 27.3641 198 27.5814 198 27.8C198 28.1499 197.987 28.4967 197.961 28.84L190.11 29.0933ZM190.993 25.0119L197.899 26.1258C197.595 23.6105 196.614 21.3036 195.144 19.3927L190.993 25.0119ZM188.738 24.6481L194.508 18.6245C194.133 18.2032 193.732 17.8051 193.308 17.4325L187.186 23.0498L187.335 24.01C187.518 24.1631 187.69 24.3285 187.85 24.505L188.738 24.6481ZM185.796 14.0913C188.307 14.3804 190.612 15.3434 192.527 16.7948L186.839 20.8112L185.796 14.0913ZM185.043 22.0786L184.044 22.7843L182.852 21.9152L183.153 14.0391C183.499 14.0132 183.848 14 184.2 14C184.412 14 184.622 14.0048 184.831 14.0142L185.043 22.0786ZM181.091 20.6304L175.853 16.8093C177.663 15.4327 179.823 14.493 182.177 14.1473L181.091 20.6304ZM168.4 27.8C168.4 36.5261 175.474 43.6 184.2 43.6C192.926 43.6 200 36.5261 200 27.8C200 19.0739 192.926 12 184.2 12C175.474 12 168.4 19.0739 168.4 27.8ZM180.8 27.8001C180.8 29.6778 182.322 31.2001 184.2 31.2001C186.078 31.2001 187.6 29.6778 187.6 27.8001C187.6 25.9223 186.078 24.4001 184.2 24.4001C182.322 24.4001 180.8 25.9223 180.8 27.8001Z" fill="#B9AEB1"/>
<path fill-rule="evenodd" clip-rule="evenodd" d="M181.6 49.4466C170.786 48.1614 162.4 38.96 162.4 27.8001C162.4 16.6401 170.786 7.43869 181.6 6.1535V4.14044C169.679 5.43567 160.4 15.5343 160.4 27.8001C160.4 40.0658 169.679 50.1644 181.6 51.4597V49.4466ZM186.8 6.1535C197.614 7.43869 206 16.6401 206 27.8001C206 38.96 197.614 48.1614 186.8 49.4466V51.4597C198.721 50.1644 208 40.0658 208 27.8001C208 15.5343 198.721 5.43567 186.8 4.14044V6.1535Z" fill="#BF2626"/>
</g>
<path d="M15.651 91.7443L13.6426 91.1947C12.952 91.0044 12.4164 90.7507 12.0359 90.4336C11.6624 90.1165 11.4757 89.662 11.4757 89.07C11.4757 88.4781 11.6976 87.9989 12.1416 87.6325C12.5926 87.259 13.2761 87.0722 14.1922 87.0722H17.8919V88.1293H14.0548C13.5475 88.1293 13.1951 88.2174 12.9978 88.3935C12.8075 88.5697 12.7124 88.7776 12.7124 89.0172C12.7124 89.292 12.8005 89.5069 12.9767 89.662C13.1599 89.817 13.4911 89.9615 13.9703 90.0954L15.9786 90.6662C16.6763 90.8635 17.2118 91.1277 17.5853 91.4589C17.9659 91.7831 18.1561 92.2376 18.1561 92.8225C18.1561 93.4779 17.9342 94.0064 17.4902 94.4081C17.0533 94.8027 16.3838 95 15.4818 95H11.6871V93.943H15.5981C16.0632 93.943 16.4014 93.8514 16.6129 93.6681C16.8313 93.4849 16.9405 93.2383 16.9405 92.9282C16.9405 92.6041 16.8489 92.3609 16.6657 92.1989C16.4895 92.0297 16.1513 91.8782 15.651 91.7443ZM27.14 91.6703C27.14 92.1918 27.0695 92.6675 26.9286 93.0973C26.7947 93.5202 26.5868 93.8831 26.305 94.1861C26.0231 94.4821 25.6602 94.7146 25.2162 94.8837C24.7793 95.0458 24.2578 95.1268 23.6518 95.1268H22.5948C21.9887 95.1268 21.4637 95.0458 21.0198 94.8837C20.5758 94.7146 20.2129 94.4821 19.931 94.1861C19.6492 93.8831 19.4413 93.5202 19.3074 93.0973C19.1735 92.6675 19.1066 92.1918 19.1066 91.6703V90.4019C19.1066 89.8734 19.1735 89.3977 19.3074 88.9749C19.4413 88.545 19.6492 88.1786 19.931 87.8756C20.2129 87.5726 20.5758 87.34 21.0198 87.1779C21.4637 87.0159 21.9887 86.9348 22.5948 86.9348H23.6518C24.2578 86.9348 24.7793 87.0159 25.2162 87.1779C25.6602 87.34 26.0231 87.5726 26.305 87.8756C26.5868 88.1786 26.7947 88.545 26.9286 88.9749C27.0695 89.3977 27.14 89.8734 27.14 90.4019V91.6703ZM20.4278 91.9557C20.4278 92.6604 20.5829 93.1889 20.8929 93.5413C21.203 93.8936 21.7174 94.0698 22.4362 94.0698H23.8104C24.5362 94.0698 25.0506 93.8936 25.3536 93.5413C25.6637 93.1889 25.8187 92.6604 25.8187 91.9557V90.1059C25.8187 89.3942 25.6637 88.8657 25.3536 88.5204C25.0506 88.168 24.5362 87.9919 23.8104 87.9919H22.4362C21.7174 87.9919 21.203 88.168 20.8929 88.5204C20.5829 88.8657 20.4278 89.3942 20.4278 90.1059V91.9557ZM28.674 95V87.0722H35.0267V88.1293H29.8895V90.4442H35.0267V91.5012H29.8895V95H28.674ZM38.8562 95V88.1293H35.6851V87.0722H43.2429V88.1293H40.0718V95H38.8562Z" fill="#CFB01C"/>
<mask id="mask5_180_1621" style="mask-type:alpha" maskUnits="userSpaceOnUse" x="0" y="55" width="57" height="28">
<rect y="55" width="56.7925" height="27.9906" fill="#D9D9D9"/>
</mask>
<g mask="url(#mask5_180_1621)">
<circle cx="28.3963" cy="83.3962" r="22.3113" transform="rotate(90 28.3963 83.3962)" stroke="black" stroke-width="12.1698"/>
<circle cx="28.5991" cy="83.1934" r="18.8632" transform="rotate(90 28.5991 83.1934)" stroke="#B9AEB1" stroke-width="0.811321"/>
<path fill-rule="evenodd" clip-rule="evenodd" d="M14.6037 83.1934C14.6037 83.5482 14.6169 83.8999 14.6428 84.2481L22.4188 84.4989L23.1241 83.52C23.1231 83.4788 23.1227 83.4376 23.1227 83.3962C23.1227 83.096 23.1478 82.8016 23.196 82.515L23.0237 82.274L14.6184 82.5452C14.6086 82.76 14.6037 82.9761 14.6037 83.1934ZM14.7521 85.2391L21.143 86.2699L17.3549 91.5279C16.011 89.7178 15.0938 87.5719 14.7521 85.2391ZM19.1947 93.5583C18.7707 93.1733 18.3703 92.7626 17.9962 92.3288L23.3327 86.6231L24.3583 86.7885C24.5077 86.9661 24.6685 87.1336 24.8397 87.2901L24.9791 88.1226L19.1947 93.5583ZM24.3583 80.004L23.9394 80.0716L18.1709 73.8592C18.5484 73.4377 18.9512 73.0392 19.3768 72.6661L25.0866 78.0706L24.8483 79.4946C24.6739 79.6532 24.5102 79.8235 24.3583 80.004ZM21.7065 80.4317L17.5441 74.61C16.0155 76.5758 14.9998 78.9601 14.6977 81.5621L21.7065 80.4317ZM28.599 97.1887C28.236 97.1887 27.8764 97.1749 27.5204 97.1477L27.2079 88.9732L27.6915 88.6231C27.922 88.6539 28.1573 88.6698 28.3962 88.6698C28.6639 88.6698 28.927 88.6499 29.1839 88.6114L29.4708 88.8207L29.2511 97.1737C29.035 97.1837 28.8176 97.1887 28.599 97.1887ZM19.9706 94.2132L25.347 90.3205L26.4699 97.0278C24.042 96.6572 21.8193 95.6627 19.9706 94.2132ZM30.2882 97.0878L31.3576 90.1971L37.0501 94.3499C35.1247 95.8107 32.8096 96.7844 30.2882 97.0878ZM39.0506 92.5012C38.6683 92.9302 38.26 93.3354 37.8282 93.7145L31.7103 87.9238L31.786 87.4362C31.9948 87.2609 32.1897 87.0696 32.3691 86.8644L33.6279 86.6614L39.0506 92.5012ZM39.7251 91.6844C41.1333 89.842 42.0942 87.6395 42.4458 85.2391L35.8747 86.299L39.7251 91.6844ZM34.592 84.5049L33.6666 83.2106C33.6626 83.094 33.6548 82.9784 33.6433 82.8639L34.0907 82.2582L42.5789 82.5321C42.5891 82.7512 42.5943 82.9717 42.5943 83.1934C42.5943 83.5482 42.5811 83.8999 42.5551 84.2481L34.592 84.5049ZM35.4886 80.3658L42.4923 81.4954C42.1838 78.9445 41.189 76.6051 39.6981 74.6672L35.4886 80.3658ZM33.2014 79.9969L39.0528 73.8881C38.6722 73.4608 38.2658 73.057 37.8361 72.6791L31.6272 78.376L31.7783 79.3498C31.9638 79.505 32.1385 79.6727 32.301 79.8516L33.2014 79.9969ZM30.2173 69.2907C32.7636 69.5838 35.102 70.5605 37.0443 72.0324L31.2749 76.1057L30.2173 69.2907ZM29.4544 77.391L28.4407 78.1066L27.2323 77.2251L27.5376 69.2377C27.8879 69.2115 28.2419 69.1981 28.599 69.1981C28.8136 69.1981 29.0271 69.2029 29.2393 69.2125L29.4544 77.391ZM25.4463 75.9222L20.1344 72.0471C21.9698 70.6511 24.1605 69.6981 26.5469 69.3475L25.4463 75.9222ZM12.5754 83.1934C12.5754 92.043 19.7494 99.217 28.599 99.217C37.4486 99.217 44.6226 92.043 44.6226 83.1934C44.6226 74.3438 37.4486 67.1698 28.599 67.1698C19.7494 67.1698 12.5754 74.3438 12.5754 83.1934ZM25.151 83.1934C25.151 85.0977 26.6947 86.6415 28.5991 86.6415C30.5034 86.6415 32.0472 85.0977 32.0472 83.1934C32.0472 81.2891 30.5034 79.7453 28.5991 79.7453C26.6947 79.7453 25.151 81.2891 25.151 83.1934Z" fill="#B9AEB1"/>
<path fill-rule="evenodd" clip-rule="evenodd" d="M25.9623 105.146C14.9951 103.843 6.49055 94.5113 6.49055 83.1934C6.49055 71.8755 14.9951 62.5439 25.9623 61.2405V59.199C13.8723 60.5125 4.46225 70.754 4.46225 83.1934C4.46225 95.6327 13.8723 105.874 25.9623 107.188V105.146ZM31.2358 61.2405C42.203 62.5439 50.7075 71.8755 50.7075 83.1934C50.7075 94.5113 42.203 103.843 31.2358 105.146V107.188C43.3258 105.874 52.7358 95.6327 52.7358 83.1934C52.7358 70.754 43.3258 60.5125 31.2358 59.199V61.2405Z" fill="#CFB01C"/>
</g>
<path d="M166.904 95.4245V87.4967H168.12V90.8264H173.141V87.4967H174.356V95.4245H173.141V91.9363H168.12V95.4245H166.904ZM182.969 95.4245L182.06 93.2893H177.62L176.711 95.4245H175.411L178.402 88.6595C178.571 88.2789 178.751 87.9689 178.941 87.7293C179.139 87.4826 179.442 87.3593 179.85 87.3593C180.252 87.3593 180.552 87.4756 180.749 87.7081C180.953 87.9407 181.126 88.219 181.267 88.5432L184.29 95.4245H182.969ZM179.523 88.8075L178.096 92.1688H181.584L180.157 88.818C180.108 88.6912 180.058 88.6066 180.009 88.5643C179.96 88.515 179.903 88.4903 179.84 88.4903C179.776 88.4903 179.72 88.5115 179.671 88.5538C179.628 88.589 179.579 88.6736 179.523 88.8075ZM192.221 95.4245H190.72L187.613 92.0314C187.507 91.9187 187.433 91.7918 187.391 91.6509C187.356 91.5099 187.356 91.3796 187.391 91.2598C187.426 91.147 187.5 91.0519 187.613 90.9744C187.733 90.8898 187.881 90.8475 188.057 90.8475H189.885C190.343 90.8475 190.661 90.7771 190.837 90.6361C191.02 90.4952 191.112 90.2345 191.112 89.8539V89.5262C191.112 89.1457 191.02 88.8885 190.837 88.7546C190.661 88.6207 190.343 88.5538 189.885 88.5538H186.566V95.4245H185.351V87.4967H189.621C190.009 87.4967 190.368 87.5284 190.699 87.5919C191.038 87.6553 191.33 87.7645 191.577 87.9196C191.823 88.0746 192.014 88.286 192.147 88.5538C192.288 88.8145 192.359 89.1457 192.359 89.5474V89.8328C192.359 90.6361 192.112 91.1787 191.619 91.4606C191.133 91.7425 190.449 91.8834 189.568 91.8834H188.966L192.221 95.4245ZM197.43 87.4967C198.614 87.4967 199.526 87.7892 200.168 88.3741C200.809 88.959 201.129 89.7764 201.129 90.8264V92.0948C201.129 93.1448 200.812 93.9623 200.178 94.5472C199.551 95.1321 198.617 95.4245 197.377 95.4245H193.836V87.4967H197.43ZM197.588 88.5538H195.051V94.3675H197.536C198.268 94.3675 198.829 94.216 199.216 93.9129C199.611 93.6029 199.808 93.092 199.808 92.3802V90.5304C199.808 89.8187 199.614 89.3113 199.227 89.0083C198.846 88.7053 198.3 88.5538 197.588 88.5538Z" fill="#4491D2"/>
<mask id="mask6_180_1621" style="mask-type:alpha" maskUnits="userSpaceOnUse" x="155" y="55" width="57" height="29">
<rect x="155" y="55" width="56.7925" height="28.3962" fill="#D9D9D9"/>
</mask>
<g mask="url(#mask6_180_1621)">
<circle cx="183.396" cy="83.3962" r="22.3113" transform="rotate(90 183.396 83.3962)" stroke="black" stroke-width="12.1698"/>
<circle cx="183.599" cy="83.1934" r="18.8632" transform="rotate(90 183.599 83.1934)" stroke="#B9AEB1" stroke-width="0.811321"/>
<path fill-rule="evenodd" clip-rule="evenodd" d="M169.604 83.1934C169.604 83.5482 169.617 83.8999 169.643 84.2481L177.419 84.4989L178.124 83.52C178.123 83.4788 178.123 83.4376 178.123 83.3962C178.123 83.096 178.148 82.8016 178.196 82.515L178.024 82.274L169.618 82.5452C169.609 82.76 169.604 82.9761 169.604 83.1934ZM169.752 85.2391L176.143 86.2699L172.355 91.5279C171.011 89.7178 170.094 87.5719 169.752 85.2391ZM174.195 93.5583C173.771 93.1733 173.37 92.7626 172.996 92.3288L178.333 86.6231L179.358 86.7885C179.508 86.9661 179.669 87.1336 179.84 87.2901L179.979 88.1226L174.195 93.5583ZM179.358 80.004L178.939 80.0716L173.171 73.8592C173.548 73.4377 173.951 73.0392 174.377 72.6661L180.087 78.0706L179.848 79.4946C179.674 79.6532 179.51 79.8235 179.358 80.004ZM176.706 80.4317L172.544 74.61C171.016 76.5758 170 78.9601 169.698 81.5621L176.706 80.4317ZM183.599 97.1887C183.236 97.1887 182.876 97.1749 182.52 97.1477L182.208 88.9732L182.691 88.6231C182.922 88.6539 183.157 88.6698 183.396 88.6698C183.664 88.6698 183.927 88.6499 184.184 88.6114L184.471 88.8207L184.251 97.1737C184.035 97.1837 183.818 97.1887 183.599 97.1887ZM174.971 94.2132L180.347 90.3205L181.47 97.0278C179.042 96.6572 176.819 95.6627 174.971 94.2132ZM185.288 97.0878L186.358 90.1971L192.05 94.3499C190.125 95.8107 187.81 96.7844 185.288 97.0878ZM194.051 92.5012C193.668 92.9302 193.26 93.3354 192.828 93.7145L186.71 87.9238L186.786 87.4362C186.995 87.2609 187.19 87.0696 187.369 86.8644L188.628 86.6614L194.051 92.5012ZM194.725 91.6844C196.133 89.842 197.094 87.6395 197.446 85.2391L190.875 86.299L194.725 91.6844ZM189.592 84.5049L188.667 83.2106C188.663 83.094 188.655 82.9784 188.643 82.8639L189.091 82.2582L197.579 82.5321C197.589 82.7512 197.594 82.9717 197.594 83.1934C197.594 83.5482 197.581 83.8999 197.555 84.2481L189.592 84.5049ZM190.489 80.3658L197.492 81.4954C197.184 78.9445 196.189 76.6051 194.698 74.6672L190.489 80.3658ZM188.201 79.9969L194.053 73.8881C193.672 73.4608 193.266 73.057 192.836 72.6791L186.627 78.376L186.778 79.3498C186.964 79.505 187.138 79.6727 187.301 79.8516L188.201 79.9969ZM185.217 69.2907C187.764 69.5838 190.102 70.5605 192.044 72.0324L186.275 76.1057L185.217 69.2907ZM184.454 77.391L183.441 78.1066L182.232 77.2251L182.538 69.2377C182.888 69.2115 183.242 69.1981 183.599 69.1981C183.814 69.1981 184.027 69.2029 184.239 69.2125L184.454 77.391ZM180.446 75.9222L175.134 72.0471C176.97 70.6511 179.16 69.6981 181.547 69.3475L180.446 75.9222ZM167.575 83.1934C167.575 92.043 174.749 99.217 183.599 99.217C192.449 99.217 199.623 92.043 199.623 83.1934C199.623 74.3438 192.449 67.1698 183.599 67.1698C174.749 67.1698 167.575 74.3438 167.575 83.1934ZM180.151 83.1934C180.151 85.0977 181.695 86.6415 183.599 86.6415C185.503 86.6415 187.047 85.0977 187.047 83.1934C187.047 81.2891 185.503 79.7453 183.599 79.7453C181.695 79.7453 180.151 81.2891 180.151 83.1934Z" fill="#B9AEB1"/>
<path fill-rule="evenodd" clip-rule="evenodd" d="M180.962 105.146C169.995 103.843 161.491 94.5113 161.491 83.1934C161.491 71.8755 169.995 62.5439 180.962 61.2405V59.199C168.872 60.5125 159.462 70.754 159.462 83.1934C159.462 95.6327 168.872 105.874 180.962 107.188V105.146ZM186.236 61.2405C197.203 62.5439 205.708 71.8755 205.708 83.1934C205.708 94.5113 197.203 103.843 186.236 105.146V107.188C198.326 105.874 207.736 95.6327 207.736 83.1934C207.736 70.754 198.326 60.5125 186.236 59.199V61.2405Z" fill="#4491D2"/>
</g>
<path d="M95.2834 150.424V142.497H96.4989V150.424H95.2834ZM98.5119 150.424V143.977C98.5119 143.526 98.6246 143.145 98.8501 142.835C99.0756 142.518 99.4491 142.359 99.9706 142.359C100.337 142.359 100.64 142.465 100.88 142.676C101.119 142.888 101.362 143.194 101.609 143.596L104.991 149.061C105.055 149.16 105.118 149.241 105.182 149.304C105.245 149.367 105.309 149.399 105.372 149.399C105.457 149.399 105.524 149.371 105.573 149.315C105.622 149.251 105.647 149.163 105.647 149.05V142.497H106.862V149.019C106.862 149.484 106.743 149.857 106.503 150.139C106.27 150.421 105.925 150.562 105.467 150.562C105.08 150.562 104.766 150.46 104.526 150.255C104.294 150.051 104.072 149.78 103.86 149.441L100.404 143.892C100.333 143.779 100.274 143.691 100.224 143.628C100.175 143.557 100.108 143.522 100.023 143.522C99.9177 143.522 99.8402 143.557 99.7909 143.628C99.7486 143.698 99.7274 143.793 99.7274 143.913V150.424H98.5119ZM110.934 150.424V143.554H107.763V142.497H115.321V143.554H112.15V150.424H110.934ZM115.271 150.424V149.103H116.592V150.424H115.271Z" fill="#3AC82C"/>
<mask id="mask7_180_1621" style="mask-type:alpha" maskUnits="userSpaceOnUse" x="78" y="110" width="57" height="28">
<rect x="78" y="110" width="56.7925" height="27.9906" fill="#D9D9D9"/>
</mask>
<g mask="url(#mask7_180_1621)">
<circle cx="106.396" cy="138.396" r="22.3113" transform="rotate(90 106.396 138.396)" stroke="black" stroke-width="12.1698"/>
<circle cx="106.599" cy="138.193" r="18.8632" transform="rotate(90 106.599 138.193)" stroke="#B9AEB1" stroke-width="0.811321"/>
<path fill-rule="evenodd" clip-rule="evenodd" d="M92.6037 138.193C92.6037 138.548 92.6169 138.9 92.6428 139.248L100.419 139.499L101.124 138.52C101.123 138.479 101.123 138.438 101.123 138.396C101.123 138.096 101.148 137.802 101.196 137.515L101.024 137.274L92.6184 137.545C92.6086 137.76 92.6037 137.976 92.6037 138.193ZM92.7521 140.239L99.143 141.27L95.3549 146.528C94.011 144.718 93.0938 142.572 92.7521 140.239ZM97.1947 148.558C96.7707 148.173 96.3703 147.763 95.9962 147.329L101.333 141.623L102.358 141.788C102.508 141.966 102.669 142.134 102.84 142.29L102.979 143.123L97.1947 148.558ZM102.358 135.004L101.939 135.072L96.1709 128.859C96.5484 128.438 96.9512 128.039 97.3768 127.666L103.087 133.071L102.848 134.495C102.674 134.653 102.51 134.823 102.358 135.004ZM99.7065 135.432L95.5441 129.61C94.0155 131.576 92.9998 133.96 92.6977 136.562L99.7065 135.432ZM106.599 152.189C106.236 152.189 105.876 152.175 105.52 152.148L105.208 143.973L105.691 143.623C105.922 143.654 106.157 143.67 106.396 143.67C106.664 143.67 106.927 143.65 107.184 143.611L107.471 143.821L107.251 152.174C107.035 152.184 106.818 152.189 106.599 152.189ZM97.9706 149.213L103.347 145.321L104.47 152.028C102.042 151.657 99.8193 150.663 97.9706 149.213ZM108.288 152.088L109.358 145.197L115.05 149.35C113.125 150.811 110.81 151.784 108.288 152.088ZM117.051 147.501C116.668 147.93 116.26 148.335 115.828 148.715L109.71 142.924L109.786 142.436C109.995 142.261 110.19 142.07 110.369 141.864L111.628 141.661L117.051 147.501ZM117.725 146.684C119.133 144.842 120.094 142.64 120.446 140.239L113.875 141.299L117.725 146.684ZM112.592 139.505L111.667 138.211C111.663 138.094 111.655 137.978 111.643 137.864L112.091 137.258L120.579 137.532C120.589 137.751 120.594 137.972 120.594 138.193C120.594 138.548 120.581 138.9 120.555 139.248L112.592 139.505ZM113.489 135.366L120.492 136.495C120.184 133.945 119.189 131.605 117.698 129.667L113.489 135.366ZM111.201 134.997L117.053 128.888C116.672 128.461 116.266 128.057 115.836 127.679L109.627 133.376L109.778 134.35C109.964 134.505 110.138 134.673 110.301 134.852L111.201 134.997ZM108.217 124.291C110.764 124.584 113.102 125.56 115.044 127.032L109.275 131.106L108.217 124.291ZM107.454 132.391L106.441 133.107L105.232 132.225L105.538 124.238C105.888 124.211 106.242 124.198 106.599 124.198C106.814 124.198 107.027 124.203 107.239 124.212L107.454 132.391ZM103.446 130.922L98.1344 127.047C99.9698 125.651 102.16 124.698 104.547 124.347L103.446 130.922ZM90.5754 138.193C90.5754 147.043 97.7494 154.217 106.599 154.217C115.449 154.217 122.623 147.043 122.623 138.193C122.623 129.344 115.449 122.17 106.599 122.17C97.7494 122.17 90.5754 129.344 90.5754 138.193ZM103.151 138.193C103.151 140.098 104.695 141.642 106.599 141.642C108.503 141.642 110.047 140.098 110.047 138.193C110.047 136.289 108.503 134.745 106.599 134.745C104.695 134.745 103.151 136.289 103.151 138.193Z" fill="#B9AEB1"/>
<path fill-rule="evenodd" clip-rule="evenodd" d="M103.962 160.146C92.9951 158.843 84.4906 149.511 84.4906 138.193C84.4906 126.875 92.9951 117.544 103.962 116.241V114.199C91.8723 115.513 82.4623 125.754 82.4623 138.193C82.4623 150.633 91.8723 160.874 103.962 162.188V160.146ZM109.236 116.241C120.203 117.544 128.708 126.875 128.708 138.193C128.708 149.511 120.203 158.843 109.236 160.146V162.188C121.326 160.874 130.736 150.633 130.736 138.193C130.736 125.754 121.326 115.513 109.236 114.199V116.241Z" fill="#3AC82C"/>
</g>
<path d="M171.431 142.497L173.249 149.071C173.277 149.17 173.309 149.244 173.344 149.293C173.379 149.336 173.429 149.357 173.492 149.357C173.556 149.357 173.601 149.339 173.63 149.304C173.658 149.269 173.686 149.195 173.714 149.082L174.93 143.871C175.035 143.42 175.183 143.057 175.374 142.782C175.564 142.5 175.877 142.359 176.314 142.359C176.765 142.359 177.086 142.507 177.276 142.803C177.467 143.092 177.611 143.455 177.71 143.892L178.904 149.061C178.932 149.181 178.96 149.262 178.989 149.304C179.024 149.339 179.077 149.357 179.147 149.357C179.204 149.357 179.246 149.336 179.274 149.293C179.309 149.244 179.341 149.17 179.369 149.071L181.187 142.497H182.445L180.574 149.156C180.447 149.6 180.282 149.945 180.077 150.192C179.873 150.439 179.559 150.562 179.137 150.562C178.672 150.562 178.337 150.432 178.132 150.171C177.928 149.91 177.78 149.568 177.689 149.145L176.505 143.881C176.484 143.79 176.459 143.719 176.431 143.67C176.41 143.614 176.371 143.585 176.314 143.585C176.251 143.585 176.209 143.61 176.188 143.659C176.166 143.709 176.145 143.779 176.124 143.871L174.919 149.145C174.827 149.568 174.68 149.91 174.475 150.171C174.278 150.432 173.95 150.562 173.492 150.562C173.062 150.562 172.742 150.442 172.53 150.203C172.326 149.956 172.16 149.607 172.033 149.156L170.162 142.497H171.431ZM183.771 150.424V142.497H190.124V143.554H184.987V145.869H190.124V146.926H184.987V149.367H190.124V150.424H183.771ZM194.16 150.424V143.554H190.989V142.497H198.546V143.554H195.375V150.424H194.16Z" fill="#0CACE3"/>
<mask id="mask8_180_1621" style="mask-type:alpha" maskUnits="userSpaceOnUse" x="156" y="110" width="57" height="29">
<rect x="156" y="110" width="56.3868" height="28.3962" fill="#D9D9D9"/>
</mask>
<g mask="url(#mask8_180_1621)">
<circle cx="183.99" cy="138.396" r="22.3113" transform="rotate(90 183.99 138.396)" stroke="black" stroke-width="12.1698"/>
<circle cx="184.193" cy="138.193" r="18.8632" transform="rotate(90 184.193 138.193)" stroke="#B9AEB1" stroke-width="0.811321"/>
<path fill-rule="evenodd" clip-rule="evenodd" d="M170.198 138.193C170.198 138.548 170.211 138.9 170.237 139.248L178.013 139.499L178.718 138.52C178.717 138.479 178.717 138.438 178.717 138.396C178.717 138.096 178.742 137.802 178.79 137.515L178.618 137.274L170.213 137.545C170.203 137.76 170.198 137.976 170.198 138.193ZM170.347 140.239L176.737 141.27L172.949 146.528C171.605 144.718 170.688 142.572 170.347 140.239ZM174.789 148.558C174.365 148.173 173.965 147.763 173.591 147.329L178.927 141.623L179.953 141.788C180.102 141.966 180.263 142.134 180.434 142.29L180.573 143.123L174.789 148.558ZM179.953 135.004L179.534 135.072L173.765 128.859C174.143 128.438 174.546 128.039 174.971 127.666L180.681 133.071L180.443 134.495C180.268 134.653 180.104 134.823 179.953 135.004ZM177.301 135.432L173.138 129.61C171.61 131.576 170.594 133.96 170.292 136.562L177.301 135.432ZM184.193 152.189C183.83 152.189 183.471 152.175 183.115 152.148L182.802 143.973L183.286 143.623C183.516 143.654 183.752 143.67 183.991 143.67C184.258 143.67 184.521 143.65 184.778 143.611L185.065 143.821L184.845 152.174C184.629 152.184 184.412 152.189 184.193 152.189ZM175.565 149.213L180.941 145.321L182.064 152.028C179.636 151.657 177.414 150.663 175.565 149.213ZM185.883 152.088L186.952 145.197L192.644 149.35C190.719 150.811 188.404 151.784 185.883 152.088ZM194.645 147.501C194.263 147.93 193.854 148.336 193.423 148.715L187.305 142.924L187.38 142.436C187.589 142.261 187.784 142.07 187.963 141.864L189.222 141.661L194.645 147.501ZM195.32 146.685C196.728 144.842 197.689 142.64 198.04 140.239L191.469 141.299L195.32 146.685ZM190.186 139.505L189.261 138.211C189.257 138.094 189.249 137.978 189.238 137.864L189.685 137.258L198.173 137.532C198.184 137.751 198.189 137.972 198.189 138.193C198.189 138.548 198.176 138.9 198.15 139.248L190.186 139.505ZM191.083 135.366L198.087 136.495C197.778 133.944 196.783 131.605 195.292 129.667L191.083 135.366ZM188.796 134.997L194.647 128.888C194.267 128.461 193.86 128.057 193.43 127.679L187.221 133.376L187.373 134.35C187.558 134.505 187.733 134.673 187.895 134.852L188.796 134.997ZM185.812 124.291C188.358 124.584 190.696 125.56 192.639 127.032L186.869 131.106L185.812 124.291ZM185.049 132.391L184.035 133.107L182.827 132.225L183.132 124.238C183.482 124.211 183.836 124.198 184.193 124.198C184.408 124.198 184.621 124.203 184.834 124.212L185.049 132.391ZM181.041 130.922L175.729 127.047C177.564 125.651 179.755 124.698 182.141 124.348L181.041 130.922ZM168.17 138.193C168.17 147.043 175.344 154.217 184.193 154.217C193.043 154.217 200.217 147.043 200.217 138.193C200.217 129.344 193.043 122.17 184.193 122.17C175.344 122.17 168.17 129.344 168.17 138.193ZM180.745 138.193C180.745 140.098 182.289 141.642 184.193 141.642C186.098 141.642 187.641 140.098 187.641 138.193C187.641 136.289 186.098 134.745 184.193 134.745C182.289 134.745 180.745 136.289 180.745 138.193Z" fill="#B9AEB1"/>
<path fill-rule="evenodd" clip-rule="evenodd" d="M181.556 160.146C170.589 158.843 162.085 149.511 162.085 138.193C162.085 126.875 170.589 117.544 181.556 116.241V114.199C169.467 115.513 160.056 125.754 160.056 138.193C160.056 150.633 169.467 160.874 181.556 162.188V160.146ZM186.83 116.241C197.797 117.544 206.302 126.875 206.302 138.193C206.302 149.511 197.797 158.843 186.83 160.146V162.188C198.92 160.874 208.33 150.633 208.33 138.193C208.33 125.754 198.92 115.513 186.83 114.199V116.241Z" fill="#0CACE3"/>
</g>
</svg>
