<svg width="271" height="130" viewBox="0 0 214 102" fill="none" xmlns="http://www.w3.org/2000/svg">
<path d="M16.5863 36.7898L14.606 36.2478C13.925 36.0602 13.3969 35.81 13.0217 35.4973C12.6534 35.1846 12.4693 34.7365 12.4693 34.1528C12.4693 33.5691 12.6882 33.0966 13.1259 32.7353C13.5706 32.367 14.2446 32.1829 15.1479 32.1829H18.7959V33.2251H15.0124C14.5122 33.2251 14.1647 33.312 13.9702 33.4857C13.7826 33.6594 13.6887 33.8644 13.6887 34.1007C13.6887 34.3717 13.7756 34.5836 13.9493 34.7365C14.13 34.8893 14.4566 35.0318 14.9291 35.1638L16.9094 35.7266C17.5973 35.9212 18.1254 36.1818 18.4937 36.5083C18.8689 36.828 19.0565 37.2762 19.0565 37.8529C19.0565 38.4991 18.8376 39.0203 18.3999 39.4163C17.9691 39.8054 17.309 40 16.4195 40H12.6777V38.9577H16.5342C16.9928 38.9577 17.3263 38.8674 17.5348 38.6867C17.7502 38.5061 17.8579 38.2629 17.8579 37.9571C17.8579 37.6375 17.7676 37.3978 17.5869 37.2379C17.4132 37.0712 17.0796 36.9218 16.5863 36.7898ZM27.9151 36.7168C27.9151 37.231 27.8456 37.7 27.7066 38.1239C27.5746 38.5408 27.3696 38.8987 27.0916 39.1974C26.8137 39.4893 26.4559 39.7186 26.0181 39.8853C25.5873 40.0452 25.0731 40.1251 24.4755 40.1251H23.4332C22.8356 40.1251 22.318 40.0452 21.8802 39.8853C21.4425 39.7186 21.0846 39.4893 20.8067 39.1974C20.5287 38.8987 20.3237 38.5408 20.1917 38.1239C20.0597 37.7 19.9937 37.231 19.9937 36.7168V35.4661C19.9937 34.9449 20.0597 34.4759 20.1917 34.059C20.3237 33.6351 20.5287 33.2738 20.8067 32.975C21.0846 32.6762 21.4425 32.4469 21.8802 32.2871C22.318 32.1273 22.8356 32.0474 23.4332 32.0474H24.4755C25.0731 32.0474 25.5873 32.1273 26.0181 32.2871C26.4559 32.4469 26.8137 32.6762 27.0916 32.975C27.3696 33.2738 27.5746 33.6351 27.7066 34.059C27.8456 34.4759 27.9151 34.9449 27.9151 35.4661V36.7168ZM21.2965 36.9982C21.2965 37.6931 21.4494 38.2142 21.7551 38.5616C22.0609 38.9091 22.5681 39.0828 23.2769 39.0828H24.6319C25.3476 39.0828 25.8548 38.9091 26.1536 38.5616C26.4593 38.2142 26.6122 37.6931 26.6122 36.9982V35.1742C26.6122 34.4724 26.4593 33.9513 26.1536 33.6108C25.8548 33.2634 25.3476 33.0896 24.6319 33.0896H23.2769C22.5681 33.0896 22.0609 33.2634 21.7551 33.6108C21.4494 33.9513 21.2965 34.4724 21.2965 35.1742V36.9982ZM29.4276 40V32.1829H35.6917V33.2251H30.6262V35.5077H35.6917V36.55H30.6262V40H29.4276ZM39.4677 40V33.2251H36.3409V32.1829H43.7932V33.2251H40.6664V40H39.4677Z" fill="#FF0000"/>
<mask id="mask0_150_499" style="mask-type:alpha" maskUnits="userSpaceOnUse" x="0" y="0" width="56" height="28">
<rect width="56" height="27.6" fill="#D9D9D9"/>
</mask>
<g mask="url(#mask0_150_499)">
<circle cx="28.0002" cy="28" r="22" transform="rotate(90 28.0002 28)" stroke="black" stroke-width="12"/>
<circle cx="28.2002" cy="27.8" r="18.6" transform="rotate(90 28.2002 27.8)" stroke="#B9AEB1" stroke-width="0.8"/>
<path fill-rule="evenodd" clip-rule="evenodd" d="M14.4 27.8C14.4 28.1499 14.413 28.4967 14.4386 28.84L22.1061 29.0874L22.8015 28.1221C22.8006 28.0815 22.8001 28.0408 22.8001 28C22.8001 27.704 22.8249 27.4138 22.8724 27.1313L22.7024 26.8936L14.4145 27.1609C14.4049 27.3727 14.4 27.5858 14.4 27.8ZM14.5464 29.8172L20.8481 30.8336L17.1129 36.0182C15.7877 34.2334 14.8833 32.1175 14.5464 29.8172ZM18.927 38.0203C18.5089 37.6407 18.1141 37.2358 17.7452 36.808L23.0073 31.1819L24.0186 31.345C24.1659 31.5201 24.3245 31.6853 24.4932 31.8396L24.6307 32.6605L18.927 38.0203ZM24.0186 24.6552L23.6053 24.7218L17.9173 18.5962C18.2896 18.1805 18.6868 17.7876 19.1064 17.4197L24.7367 22.7489L24.5017 24.1528C24.3297 24.3093 24.1683 24.4771 24.0186 24.6552ZM21.4036 25.0769L17.2993 19.3364C15.7921 21.2748 14.7906 23.6259 14.4927 26.1916L21.4036 25.0769ZM28.2 41.6C27.8422 41.6 27.4875 41.5864 27.1365 41.5596L26.8284 33.4992L27.3052 33.154C27.5325 33.1844 27.7645 33.2 28.0001 33.2C28.2641 33.2 28.5234 33.1804 28.7768 33.1424L29.0597 33.3488L28.8431 41.5853C28.6299 41.5951 28.4155 41.6 28.2 41.6ZM19.692 38.666L24.9935 34.8277L26.1006 41.4413C23.7066 41.0759 21.515 40.0954 19.692 38.666ZM29.8657 41.5005L30.9201 34.706L36.5332 38.8009C34.6347 40.2412 32.3519 41.2014 29.8657 41.5005ZM38.5058 36.978C38.1288 37.4009 37.7262 37.8005 37.3004 38.1744L31.268 32.4645L31.3426 31.9837C31.5484 31.8108 31.7407 31.6222 31.9175 31.4199L33.1588 31.2196L38.5058 36.978ZM39.1709 36.1725C40.5594 34.3558 41.5069 32.1841 41.8536 29.8173L35.3743 30.8623L39.1709 36.1725ZM34.1095 29.0933L33.197 27.817C33.193 27.702 33.1853 27.588 33.174 27.475L33.615 26.878L41.9849 27.148C41.9949 27.3641 42 27.5814 42 27.8C42 28.1499 41.987 28.4967 41.9614 28.84L34.1095 29.0933ZM34.9934 25.0119L41.8995 26.1258C41.5953 23.6105 40.6144 21.3036 39.1443 19.3927L34.9934 25.0119ZM32.7381 24.6481L38.508 18.6245C38.1327 18.2032 37.732 17.8051 37.3082 17.4325L31.186 23.0498L31.335 24.01C31.5179 24.1631 31.6902 24.3285 31.8504 24.505L32.7381 24.6481ZM29.7957 14.0913C32.3066 14.3804 34.6123 15.3434 36.5275 16.7948L30.8386 20.8112L29.7957 14.0913ZM29.0435 22.0786L28.0438 22.7843L26.8524 21.9152L27.1535 14.0391C27.4989 14.0132 27.8479 14 28.2 14C28.4116 14 28.6221 14.0048 28.8314 14.0142L29.0435 22.0786ZM25.0914 20.6304L19.8535 16.8093C21.6633 15.4327 23.8234 14.493 26.1767 14.1473L25.0914 20.6304ZM12.4 27.8C12.4 36.5261 19.4739 43.6 28.2 43.6C36.9261 43.6 44 36.5261 44 27.8C44 19.0739 36.9261 12 28.2 12C19.4739 12 12.4 19.0739 12.4 27.8ZM24.8001 27.8001C24.8001 29.6778 26.3223 31.2001 28.2001 31.2001C30.0779 31.2001 31.6001 29.6778 31.6001 27.8001C31.6001 25.9223 30.0779 24.4001 28.2001 24.4001C26.3223 24.4001 24.8001 25.9223 24.8001 27.8001Z" fill="#B9AEB1"/>
<path fill-rule="evenodd" clip-rule="evenodd" d="M25.6 49.4466C14.7859 48.1614 6.4 38.96 6.4 27.8001C6.4 16.6401 14.7859 7.43869 25.6 6.1535V4.14044C13.6787 5.43567 4.4 15.5343 4.4 27.8001C4.4 40.0658 13.6787 50.1644 25.6 51.4597V49.4466ZM30.8 6.1535C41.6141 7.43869 50 16.6401 50 27.8001C50 38.96 41.6141 48.1614 30.8 49.4466V51.4597C42.7213 50.1644 52 40.0658 52 27.8001C52 15.5343 42.7213 5.43567 30.8 4.14044V6.1535Z" fill="#BF2626"/>
</g>
<path d="M80.504 40.4245L81.7196 33.7652C81.8041 33.3001 81.9521 32.9513 82.1635 32.7187C82.3749 32.4791 82.6815 32.3593 83.0832 32.3593C83.5271 32.3593 83.8548 32.5038 84.0662 32.7927C84.2846 33.0746 84.4432 33.4269 84.5419 33.8497L85.8314 39.2935C85.8526 39.3851 85.8737 39.4591 85.8949 39.5154C85.9231 39.5648 85.9653 39.5894 86.0217 39.5894C86.0851 39.5894 86.1274 39.5648 86.1486 39.5154C86.1697 39.4661 86.1908 39.3957 86.212 39.304L87.5227 33.8497C87.6214 33.4269 87.787 33.0746 88.0195 32.7927C88.2521 32.5038 88.5762 32.3593 88.992 32.3593C89.4289 32.3593 89.753 32.4791 89.9645 32.7187C90.1829 32.9513 90.3344 33.3001 90.419 33.7652L91.6134 40.4245H90.3238L89.2245 33.7123C89.2104 33.6066 89.1858 33.5326 89.1505 33.4903C89.1153 33.4481 89.0695 33.4269 89.0131 33.4269C88.9497 33.4269 88.8968 33.4481 88.8546 33.4903C88.8123 33.5326 88.777 33.6101 88.7489 33.7229L87.4593 39.1561C87.3536 39.6071 87.195 39.9559 86.9836 40.2025C86.7793 40.4421 86.4586 40.5619 86.0217 40.5619C85.5707 40.5619 85.2466 40.4315 85.0492 40.1708C84.8519 39.903 84.7075 39.5789 84.6159 39.1983L83.3368 33.7335C83.3087 33.6137 83.2769 33.5326 83.2417 33.4903C83.2065 33.4481 83.1571 33.4269 83.0937 33.4269C83.0373 33.4269 82.988 33.4481 82.9457 33.4903C82.9035 33.5326 82.8753 33.6066 82.8612 33.7123L81.7407 40.4245H80.504ZM93.0365 40.4245V32.4967H99.3892V33.5538H94.252V35.8687H99.3892V36.9257H94.252V39.3675H99.3892V40.4245H93.0365ZM100.84 34.7482H102.056V39.3675H104.54C105.273 39.3675 105.833 39.216 106.221 38.9129C106.615 38.6029 106.813 38.092 106.813 37.3802V35.5304C106.813 34.8187 106.619 34.3113 106.231 34.0083C105.851 33.7053 105.305 33.5538 104.593 33.5538H98.3035V32.4967H104.434C105.618 32.4967 106.531 32.7892 107.172 33.3741C107.813 33.959 108.134 34.7764 108.134 35.8264V37.0948C108.134 38.1448 107.817 38.9623 107.183 39.5472C106.555 40.1321 105.622 40.4245 104.381 40.4245H100.84V34.7482ZM109.565 40.4245V32.4967H110.781V40.4245H109.565ZM115.754 40.5619C114.725 40.5619 113.974 40.354 113.502 39.9383C113.03 39.5225 112.794 38.8636 112.794 37.9616V32.4967H114.01V38.0462C114.01 38.5395 114.133 38.9059 114.379 39.1455C114.633 39.3851 115.024 39.5049 115.553 39.5049H117.455C117.956 39.5049 118.333 39.3851 118.586 39.1455C118.847 38.9059 118.978 38.5395 118.978 38.0462V32.4967H120.193V37.9616C120.193 38.8636 119.954 39.5225 119.474 39.9383C118.995 40.354 118.213 40.5619 117.128 40.5619H115.754ZM121.619 40.4245L122.835 33.7652C122.919 33.3001 123.067 32.9513 123.278 32.7187C123.49 32.4791 123.796 32.3593 124.198 32.3593C124.642 32.3593 124.97 32.5038 125.181 32.7927C125.4 33.0746 125.558 33.4269 125.657 33.8497L126.946 39.2935C126.968 39.3851 126.989 39.4591 127.01 39.5154C127.038 39.5648 127.08 39.5894 127.137 39.5894C127.2 39.5894 127.242 39.5648 127.264 39.5154C127.285 39.4661 127.306 39.3957 127.327 39.304L128.638 33.8497C128.736 33.4269 128.902 33.0746 129.134 32.7927C129.367 32.5038 129.691 32.3593 130.107 32.3593C130.544 32.3593 130.868 32.4791 131.079 32.7187C131.298 32.9513 131.449 33.3001 131.534 33.7652L132.728 40.4245H131.439L130.339 33.7123C130.325 33.6066 130.301 33.5326 130.265 33.4903C130.23 33.4481 130.184 33.4269 130.128 33.4269C130.065 33.4269 130.012 33.4481 129.97 33.4903C129.927 33.5326 129.892 33.6101 129.864 33.7229L128.574 39.1561C128.469 39.6071 128.31 39.9559 128.099 40.2025C127.894 40.4421 127.574 40.5619 127.137 40.5619C126.686 40.5619 126.361 40.4315 126.164 40.1708C125.967 39.903 125.822 39.5789 125.731 39.1983L124.452 33.7335C124.424 33.6137 124.392 33.5326 124.357 33.4903C124.321 33.4481 124.272 33.4269 124.209 33.4269C124.152 33.4269 124.103 33.4481 124.061 33.4903C124.018 33.5326 123.99 33.6066 123.976 33.7123L122.856 40.4245H121.619Z" fill="#CFB01C"/>
<mask id="mask1_150_499" style="mask-type:alpha" maskUnits="userSpaceOnUse" x="78" y="0" width="57" height="28">
<rect x="78" width="56.7925" height="27.9906" fill="#D9D9D9"/>
</mask>
<g mask="url(#mask1_150_499)">
<circle cx="106.396" cy="28.3962" r="22.3113" transform="rotate(90 106.396 28.3962)" stroke="black" stroke-width="12.1698"/>
<circle cx="106.599" cy="28.1934" r="18.8632" transform="rotate(90 106.599 28.1934)" stroke="#B9AEB1" stroke-width="0.811321"/>
<path fill-rule="evenodd" clip-rule="evenodd" d="M92.6037 28.1934C92.6037 28.5482 92.6169 28.8999 92.6428 29.2481L100.419 29.4989L101.124 28.52C101.123 28.4788 101.123 28.4376 101.123 28.3962C101.123 28.096 101.148 27.8016 101.196 27.515L101.024 27.274L92.6184 27.5452C92.6086 27.76 92.6037 27.9761 92.6037 28.1934ZM92.7521 30.2391L99.143 31.2699L95.3549 36.5279C94.011 34.7178 93.0938 32.5719 92.7521 30.2391ZM97.1947 38.5583C96.7707 38.1733 96.3703 37.7626 95.9962 37.3288L101.333 31.6231L102.358 31.7885C102.508 31.9661 102.669 32.1336 102.84 32.2901L102.979 33.1226L97.1947 38.5583ZM102.358 25.004L101.939 25.0716L96.1709 18.8592C96.5484 18.4377 96.9512 18.0392 97.3768 17.6661L103.087 23.0706L102.848 24.4946C102.674 24.6532 102.51 24.8235 102.358 25.004ZM99.7065 25.4317L95.5441 19.61C94.0155 21.5758 92.9998 23.9601 92.6977 26.5621L99.7065 25.4317ZM106.599 42.1887C106.236 42.1887 105.876 42.1749 105.52 42.1477L105.208 33.9732L105.691 33.6231C105.922 33.6539 106.157 33.6698 106.396 33.6698C106.664 33.6698 106.927 33.6499 107.184 33.6114L107.471 33.8207L107.251 42.1737C107.035 42.1837 106.818 42.1887 106.599 42.1887ZM97.9706 39.2132L103.347 35.3205L104.47 42.0278C102.042 41.6572 99.8193 40.6627 97.9706 39.2132ZM108.288 42.0878L109.358 35.1971L115.05 39.3499C113.125 40.8107 110.81 41.7844 108.288 42.0878ZM117.051 37.5012C116.668 37.9302 116.26 38.3354 115.828 38.7145L109.71 32.9238L109.786 32.4362C109.995 32.2609 110.19 32.0696 110.369 31.8644L111.628 31.6614L117.051 37.5012ZM117.725 36.6844C119.133 34.842 120.094 32.6395 120.446 30.2391L113.875 31.299L117.725 36.6844ZM112.592 29.5049L111.667 28.2106C111.663 28.094 111.655 27.9784 111.643 27.8639L112.091 27.2582L120.579 27.5321C120.589 27.7512 120.594 27.9717 120.594 28.1934C120.594 28.5482 120.581 28.8999 120.555 29.2481L112.592 29.5049ZM113.489 25.3658L120.492 26.4954C120.184 23.9445 119.189 21.6051 117.698 19.6672L113.489 25.3658ZM111.201 24.9969L117.053 18.8881C116.672 18.4608 116.266 18.057 115.836 17.6791L109.627 23.376L109.778 24.3498C109.964 24.505 110.138 24.6727 110.301 24.8516L111.201 24.9969ZM108.217 14.2907C110.764 14.5838 113.102 15.5605 115.044 17.0324L109.275 21.1057L108.217 14.2907ZM107.454 22.391L106.441 23.1066L105.232 22.2251L105.538 14.2377C105.888 14.2115 106.242 14.1981 106.599 14.1981C106.814 14.1981 107.027 14.2029 107.239 14.2125L107.454 22.391ZM103.446 20.9222L98.1344 17.0471C99.9698 15.6511 102.16 14.6981 104.547 14.3475L103.446 20.9222ZM90.5754 28.1934C90.5754 37.043 97.7494 44.217 106.599 44.217C115.449 44.217 122.623 37.043 122.623 28.1934C122.623 19.3438 115.449 12.1698 106.599 12.1698C97.7494 12.1698 90.5754 19.3438 90.5754 28.1934ZM103.151 28.1934C103.151 30.0977 104.695 31.6415 106.599 31.6415C108.503 31.6415 110.047 30.0977 110.047 28.1934C110.047 26.2891 108.503 24.7453 106.599 24.7453C104.695 24.7453 103.151 26.2891 103.151 28.1934Z" fill="#B9AEB1"/>
<path fill-rule="evenodd" clip-rule="evenodd" d="M103.962 50.1463C92.9951 48.8429 84.4906 39.5113 84.4906 28.1934C84.4906 16.8755 92.9951 7.54389 103.962 6.24052V4.19897C91.8723 5.51253 82.4623 15.754 82.4623 28.1934C82.4623 40.6327 91.8723 50.8743 103.962 52.1878V50.1463ZM109.236 6.24052C120.203 7.5439 128.708 16.8755 128.708 28.1934C128.708 39.5113 120.203 48.8429 109.236 50.1463V52.1878C121.326 50.8743 130.736 40.6327 130.736 28.1934C130.736 15.754 121.326 5.51253 109.236 4.19897V6.24052Z" fill="#CFB01C"/>
</g>
<path d="M168.904 40.4245V32.4967H170.12V35.8264H175.141V32.4967H176.356V40.4245H175.141V36.9363H170.12V40.4245H168.904ZM184.969 40.4245L184.06 38.2893H179.62L178.711 40.4245H177.411L180.402 33.6595C180.571 33.2789 180.751 32.9689 180.941 32.7293C181.139 32.4826 181.442 32.3593 181.85 32.3593C182.252 32.3593 182.552 32.4756 182.749 32.7081C182.953 32.9407 183.126 33.219 183.267 33.5432L186.29 40.4245H184.969ZM181.523 33.8075L180.096 37.1688H183.584L182.157 33.818C182.108 33.6912 182.058 33.6066 182.009 33.5643C181.96 33.515 181.903 33.4903 181.84 33.4903C181.776 33.4903 181.72 33.5115 181.671 33.5538C181.628 33.589 181.579 33.6736 181.523 33.8075ZM194.221 40.4245H192.72L189.613 37.0314C189.507 36.9187 189.433 36.7918 189.391 36.6509C189.356 36.5099 189.356 36.3796 189.391 36.2598C189.426 36.147 189.5 36.0519 189.613 35.9744C189.733 35.8898 189.881 35.8475 190.057 35.8475H191.885C192.343 35.8475 192.661 35.7771 192.837 35.6361C193.02 35.4952 193.112 35.2345 193.112 34.8539V34.5262C193.112 34.1457 193.02 33.8885 192.837 33.7546C192.661 33.6207 192.343 33.5538 191.885 33.5538H188.566V40.4245H187.351V32.4967H191.621C192.009 32.4967 192.368 32.5284 192.699 32.5919C193.038 32.6553 193.33 32.7645 193.577 32.9196C193.823 33.0746 194.014 33.286 194.147 33.5538C194.288 33.8145 194.359 34.1457 194.359 34.5474V34.8328C194.359 35.6361 194.112 36.1787 193.619 36.4606C193.133 36.7425 192.449 36.8834 191.568 36.8834H190.966L194.221 40.4245ZM199.43 32.4967C200.614 32.4967 201.526 32.7892 202.168 33.3741C202.809 33.959 203.129 34.7764 203.129 35.8264V37.0948C203.129 38.1448 202.812 38.9623 202.178 39.5472C201.551 40.1321 200.617 40.4245 199.377 40.4245H195.836V32.4967H199.43ZM199.588 33.5538H197.051V39.3675H199.536C200.268 39.3675 200.829 39.216 201.216 38.9129C201.611 38.6029 201.808 38.092 201.808 37.3802V35.5304C201.808 34.8187 201.614 34.3113 201.227 34.0083C200.846 33.7053 200.3 33.5538 199.588 33.5538Z" fill="white"/>
<mask id="mask2_150_499" style="mask-type:alpha" maskUnits="userSpaceOnUse" x="157" y="0" width="57" height="29">
<rect x="157" width="56.7925" height="28.3962" fill="#D9D9D9"/>
</mask>
<g mask="url(#mask2_150_499)">
<circle cx="185.396" cy="28.3962" r="22.3113" transform="rotate(90 185.396 28.3962)" stroke="black" stroke-width="12.1698"/>
<circle cx="185.599" cy="28.1934" r="18.8632" transform="rotate(90 185.599 28.1934)" stroke="#B9AEB1" stroke-width="0.811321"/>
<path fill-rule="evenodd" clip-rule="evenodd" d="M171.604 28.1934C171.604 28.5482 171.617 28.8999 171.643 29.2481L179.419 29.4989L180.124 28.52C180.123 28.4788 180.123 28.4376 180.123 28.3962C180.123 28.096 180.148 27.8016 180.196 27.515L180.024 27.274L171.618 27.5452C171.609 27.76 171.604 27.9761 171.604 28.1934ZM171.752 30.2391L178.143 31.2699L174.355 36.5279C173.011 34.7178 172.094 32.5719 171.752 30.2391ZM176.195 38.5583C175.771 38.1733 175.37 37.7626 174.996 37.3288L180.333 31.6231L181.358 31.7885C181.508 31.9661 181.669 32.1336 181.84 32.2901L181.979 33.1226L176.195 38.5583ZM181.358 25.004L180.939 25.0716L175.171 18.8592C175.548 18.4377 175.951 18.0392 176.377 17.6661L182.087 23.0706L181.848 24.4946C181.674 24.6532 181.51 24.8235 181.358 25.004ZM178.706 25.4317L174.544 19.61C173.016 21.5758 172 23.9601 171.698 26.5621L178.706 25.4317ZM185.599 42.1887C185.236 42.1887 184.876 42.1749 184.52 42.1477L184.208 33.9732L184.691 33.6231C184.922 33.6539 185.157 33.6698 185.396 33.6698C185.664 33.6698 185.927 33.6499 186.184 33.6114L186.471 33.8207L186.251 42.1737C186.035 42.1837 185.818 42.1887 185.599 42.1887ZM176.971 39.2132L182.347 35.3205L183.47 42.0278C181.042 41.6572 178.819 40.6627 176.971 39.2132ZM187.288 42.0878L188.358 35.1971L194.05 39.3499C192.125 40.8107 189.81 41.7844 187.288 42.0878ZM196.051 37.5012C195.668 37.9302 195.26 38.3354 194.828 38.7145L188.71 32.9238L188.786 32.4362C188.995 32.2609 189.19 32.0696 189.369 31.8644L190.628 31.6614L196.051 37.5012ZM196.725 36.6844C198.133 34.842 199.094 32.6395 199.446 30.2391L192.875 31.299L196.725 36.6844ZM191.592 29.5049L190.667 28.2106C190.663 28.094 190.655 27.9784 190.643 27.8639L191.091 27.2582L199.579 27.5321C199.589 27.7512 199.594 27.9717 199.594 28.1934C199.594 28.5482 199.581 28.8999 199.555 29.2481L191.592 29.5049ZM192.489 25.3658L199.492 26.4954C199.184 23.9445 198.189 21.6051 196.698 19.6672L192.489 25.3658ZM190.201 24.9969L196.053 18.8881C195.672 18.4608 195.266 18.057 194.836 17.6791L188.627 23.376L188.778 24.3498C188.964 24.505 189.138 24.6727 189.301 24.8516L190.201 24.9969ZM187.217 14.2907C189.764 14.5838 192.102 15.5605 194.044 17.0324L188.275 21.1057L187.217 14.2907ZM186.454 22.391L185.441 23.1066L184.232 22.2251L184.538 14.2377C184.888 14.2115 185.242 14.1981 185.599 14.1981C185.814 14.1981 186.027 14.2029 186.239 14.2125L186.454 22.391ZM182.446 20.9222L177.134 17.0471C178.97 15.6511 181.16 14.6981 183.547 14.3475L182.446 20.9222ZM169.575 28.1934C169.575 37.043 176.749 44.217 185.599 44.217C194.449 44.217 201.623 37.043 201.623 28.1934C201.623 19.3438 194.449 12.1698 185.599 12.1698C176.749 12.1698 169.575 19.3438 169.575 28.1934ZM182.151 28.1934C182.151 30.0977 183.695 31.6415 185.599 31.6415C187.503 31.6415 189.047 30.0977 189.047 28.1934C189.047 26.2891 187.503 24.7453 185.599 24.7453C183.695 24.7453 182.151 26.2891 182.151 28.1934Z" fill="#B9AEB1"/>
<path fill-rule="evenodd" clip-rule="evenodd" d="M182.962 50.1463C171.995 48.8429 163.491 39.5113 163.491 28.1934C163.491 16.8755 171.995 7.54389 182.962 6.24052V4.19897C170.872 5.51253 161.462 15.754 161.462 28.1934C161.462 40.6327 170.872 50.8743 182.962 52.1878V50.1463ZM188.236 6.24052C199.203 7.5439 207.708 16.8755 207.708 28.1934C207.708 39.5113 199.203 48.8429 188.236 50.1463V52.1878C200.326 50.8743 209.736 40.6327 209.736 28.1934C209.736 15.754 200.326 5.51253 188.236 4.19897V6.24052Z" fill="#F5F5F5"/>
</g>
<path d="M55.2834 98.4245V90.4967H56.4989V98.4245H55.2834ZM58.5119 98.4245V91.9766C58.5119 91.5256 58.6246 91.1451 58.8501 90.835C59.0756 90.5179 59.4491 90.3593 59.9706 90.3593C60.337 90.3593 60.64 90.465 60.8796 90.6764C61.1192 90.8878 61.3623 91.1944 61.609 91.5961L64.9915 97.0609C65.0549 97.1596 65.1183 97.2406 65.1817 97.304C65.2452 97.3675 65.3086 97.3992 65.372 97.3992C65.4566 97.3992 65.5235 97.371 65.5728 97.3146C65.6222 97.2512 65.6468 97.1631 65.6468 97.0504V90.4967H66.8624V97.0186C66.8624 97.4837 66.7426 97.8572 66.503 98.1391C66.2705 98.421 65.9252 98.5619 65.4671 98.5619C65.0796 98.5619 64.766 98.4597 64.5264 98.2554C64.2938 98.051 64.0719 97.7797 63.8604 97.4415L60.4039 91.892C60.3335 91.7793 60.2736 91.6912 60.2242 91.6278C60.1749 91.5573 60.108 91.5221 60.0234 91.5221C59.9177 91.5221 59.8402 91.5573 59.7909 91.6278C59.7486 91.6982 59.7274 91.7934 59.7274 91.9132V98.4245H58.5119ZM70.9341 98.4245V91.5538H67.763V90.4967H75.3208V91.5538H72.1497V98.4245H70.9341ZM75.2708 98.4245V97.1032H76.5921V98.4245H75.2708Z" fill="#3AC82C"/>
<mask id="mask3_150_499" style="mask-type:alpha" maskUnits="userSpaceOnUse" x="38" y="58" width="57" height="28">
<rect x="38" y="58" width="56.7925" height="27.9906" fill="#D9D9D9"/>
</mask>
<g mask="url(#mask3_150_499)">
<circle cx="66.3963" cy="86.3962" r="22.3113" transform="rotate(90 66.3963 86.3962)" stroke="black" stroke-width="12.1698"/>
<circle cx="66.5991" cy="86.1934" r="18.8632" transform="rotate(90 66.5991 86.1934)" stroke="#B9AEB1" stroke-width="0.811321"/>
<path fill-rule="evenodd" clip-rule="evenodd" d="M52.6037 86.1934C52.6037 86.5482 52.6169 86.8999 52.6428 87.2481L60.4188 87.4989L61.1241 86.52C61.1231 86.4788 61.1227 86.4376 61.1227 86.3962C61.1227 86.096 61.1478 85.8016 61.196 85.515L61.0237 85.274L52.6184 85.5452C52.6086 85.76 52.6037 85.9761 52.6037 86.1934ZM52.7521 88.2391L59.143 89.2699L55.3549 94.5279C54.011 92.7178 53.0938 90.5719 52.7521 88.2391ZM57.1947 96.5583C56.7707 96.1733 56.3703 95.7626 55.9962 95.3288L61.3327 89.6231L62.3583 89.7885C62.5077 89.9661 62.6685 90.1336 62.8397 90.2901L62.9791 91.1226L57.1947 96.5583ZM62.3583 83.004L61.9394 83.0716L56.1709 76.8592C56.5484 76.4377 56.9512 76.0392 57.3768 75.6661L63.0866 81.0706L62.8483 82.4946C62.6739 82.6532 62.5102 82.8235 62.3583 83.004ZM59.7065 83.4317L55.5441 77.61C54.0155 79.5758 52.9998 81.9601 52.6977 84.5621L59.7065 83.4317ZM66.599 100.189C66.236 100.189 65.8764 100.175 65.5204 100.148L65.2079 91.9732L65.6915 91.6231C65.922 91.6539 66.1573 91.6698 66.3962 91.6698C66.6639 91.6698 66.927 91.6499 67.1839 91.6114L67.4708 91.8207L67.2511 100.174C67.035 100.184 66.8176 100.189 66.599 100.189ZM57.9706 97.2132L63.347 93.3205L64.4699 100.028C62.042 99.6572 59.8193 98.6627 57.9706 97.2132ZM68.2882 100.088L69.3576 93.1971L75.0501 97.3499C73.1247 98.8107 70.8096 99.7844 68.2882 100.088ZM77.0506 95.5012C76.6683 95.9302 76.26 96.3354 75.8282 96.7145L69.7103 90.9238L69.786 90.4362C69.9948 90.2609 70.1897 90.0696 70.3691 89.8644L71.6279 89.6614L77.0506 95.5012ZM77.7251 94.6844C79.1333 92.842 80.0942 90.6395 80.4458 88.2391L73.8747 89.299L77.7251 94.6844ZM72.592 87.5049L71.6666 86.2106C71.6626 86.094 71.6548 85.9784 71.6433 85.8639L72.0907 85.2582L80.5789 85.5321C80.5891 85.7512 80.5943 85.9717 80.5943 86.1934C80.5943 86.5482 80.5811 86.8999 80.5551 87.2481L72.592 87.5049ZM73.4886 83.3658L80.4923 84.4954C80.1838 81.9445 79.189 79.6051 77.6981 77.6672L73.4886 83.3658ZM71.2014 82.9969L77.0528 76.8881C76.6722 76.4608 76.2658 76.057 75.8361 75.6791L69.6272 81.376L69.7783 82.3498C69.9638 82.505 70.1385 82.6727 70.301 82.8516L71.2014 82.9969ZM68.2173 72.2907C70.7636 72.5838 73.102 73.5605 75.0443 75.0324L69.2749 79.1057L68.2173 72.2907ZM67.4544 80.391L66.4407 81.1066L65.2323 80.2251L65.5376 72.2377C65.8879 72.2115 66.2419 72.1981 66.599 72.1981C66.8136 72.1981 67.0271 72.2029 67.2393 72.2125L67.4544 80.391ZM63.4463 78.9222L58.1344 75.0471C59.9698 73.6511 62.1605 72.6981 64.5469 72.3475L63.4463 78.9222ZM50.5754 86.1934C50.5754 95.043 57.7494 102.217 66.599 102.217C75.4486 102.217 82.6226 95.043 82.6226 86.1934C82.6226 77.3438 75.4486 70.1698 66.599 70.1698C57.7494 70.1698 50.5754 77.3438 50.5754 86.1934ZM63.151 86.1934C63.151 88.0977 64.6947 89.6415 66.5991 89.6415C68.5034 89.6415 70.0472 88.0977 70.0472 86.1934C70.0472 84.2891 68.5034 82.7453 66.5991 82.7453C64.6947 82.7453 63.151 84.2891 63.151 86.1934Z" fill="#B9AEB1"/>
<path fill-rule="evenodd" clip-rule="evenodd" d="M63.9623 108.146C52.9951 106.843 44.4906 97.5113 44.4906 86.1934C44.4906 74.8755 52.9951 65.5439 63.9623 64.2405V62.199C51.8723 63.5125 42.4623 73.754 42.4623 86.1934C42.4623 98.6327 51.8723 108.874 63.9623 110.188V108.146ZM69.2358 64.2405C80.203 65.5439 88.7075 74.8755 88.7075 86.1934C88.7075 97.5113 80.203 106.843 69.2358 108.146V110.188C81.3258 108.874 90.7358 98.6327 90.7358 86.1934C90.7358 73.754 81.3258 63.5125 69.2358 62.199V64.2405Z" fill="#3AC82C"/>
</g>
<path d="M132.431 90.4967L134.249 97.0715C134.277 97.1702 134.309 97.2441 134.344 97.2935C134.379 97.3358 134.429 97.3569 134.492 97.3569C134.556 97.3569 134.601 97.3393 134.63 97.304C134.658 97.2688 134.686 97.1948 134.714 97.0821L135.93 91.8709C136.035 91.4199 136.183 91.057 136.374 90.7821C136.564 90.5003 136.877 90.3593 137.314 90.3593C137.765 90.3593 138.086 90.5073 138.276 90.8033C138.467 91.0922 138.611 91.4551 138.71 91.892L139.904 97.0609C139.932 97.1807 139.96 97.2618 139.989 97.304C140.024 97.3393 140.077 97.3569 140.147 97.3569C140.204 97.3569 140.246 97.3358 140.274 97.2935C140.309 97.2441 140.341 97.1702 140.369 97.0715L142.187 90.4967H143.445L141.574 97.1561C141.447 97.6 141.282 97.9453 141.077 98.192C140.873 98.4386 140.559 98.5619 140.137 98.5619C139.672 98.5619 139.337 98.4315 139.132 98.1708C138.928 97.9101 138.78 97.5683 138.689 97.1455L137.505 91.8815C137.484 91.7898 137.459 91.7194 137.431 91.67C137.41 91.6137 137.371 91.5855 137.314 91.5855C137.251 91.5855 137.209 91.6101 137.188 91.6595C137.166 91.7088 137.145 91.7793 137.124 91.8709L135.919 97.1455C135.827 97.5683 135.68 97.9101 135.475 98.1708C135.278 98.4315 134.95 98.5619 134.492 98.5619C134.062 98.5619 133.742 98.4421 133.53 98.2025C133.326 97.9559 133.16 97.6071 133.033 97.1561L131.162 90.4967H132.431ZM144.771 98.4245V90.4967H151.124V91.5538H145.987V93.8687H151.124V94.9257H145.987V97.3675H151.124V98.4245H144.771ZM155.16 98.4245V91.5538H151.989V90.4967H159.546V91.5538H156.375V98.4245H155.16Z" fill="#4491D2"/>
<mask id="mask4_150_499" style="mask-type:alpha" maskUnits="userSpaceOnUse" x="117" y="58" width="57" height="29">
<rect x="117" y="58" width="56.3868" height="28.3962" fill="#D9D9D9"/>
</mask>
<g mask="url(#mask4_150_499)">
<circle cx="144.99" cy="86.3962" r="22.3113" transform="rotate(90 144.99 86.3962)" stroke="black" stroke-width="12.1698"/>
<circle cx="145.193" cy="86.1934" r="18.8632" transform="rotate(90 145.193 86.1934)" stroke="#B9AEB1" stroke-width="0.811321"/>
<path fill-rule="evenodd" clip-rule="evenodd" d="M131.198 86.1934C131.198 86.5482 131.211 86.8999 131.237 87.2481L139.013 87.4989L139.718 86.52C139.717 86.4788 139.717 86.4376 139.717 86.3962C139.717 86.096 139.742 85.8016 139.79 85.515L139.618 85.274L131.213 85.5452C131.203 85.76 131.198 85.9761 131.198 86.1934ZM131.347 88.2391L137.737 89.2699L133.949 94.5277C132.605 92.7177 131.688 90.5719 131.347 88.2391ZM135.789 96.5582C135.365 96.1732 134.965 95.7625 134.591 95.3287L139.927 89.6231L140.953 89.7885C141.102 89.9661 141.263 90.1336 141.434 90.2901L141.573 91.1226L135.789 96.5582ZM140.953 83.004L140.534 83.0716L134.765 76.8593C135.143 76.4378 135.546 76.0393 135.971 75.6662L141.681 81.0706L141.443 82.4946C141.268 82.6532 141.104 82.8234 140.953 83.004ZM138.301 83.4317L134.138 77.6101C132.61 79.5759 131.594 81.9602 131.292 84.5621L138.301 83.4317ZM145.193 100.189C144.83 100.189 144.471 100.175 144.115 100.148L143.802 91.9732L144.286 91.6231C144.516 91.6539 144.752 91.6698 144.991 91.6698C145.258 91.6698 145.521 91.6499 145.778 91.6114L146.065 91.8207L145.845 100.174C145.629 100.184 145.412 100.189 145.193 100.189ZM136.565 97.2131L141.941 93.3205L143.064 100.028C140.636 99.6571 138.414 98.6627 136.565 97.2131ZM146.883 100.088L147.952 93.1971L153.644 97.35C151.719 98.8107 149.404 99.7845 146.883 100.088ZM155.645 95.5013C155.263 95.9303 154.854 96.3355 154.423 96.7146L148.305 90.9238L148.38 90.4362C148.589 90.2609 148.784 90.0696 148.963 89.8644L150.222 89.6614L155.645 95.5013ZM156.32 94.6845C157.728 92.8421 158.689 90.6396 159.04 88.2391L152.469 89.299L156.32 94.6845ZM151.186 87.5049L150.261 86.2106C150.257 86.094 150.249 85.9784 150.238 85.8639L150.685 85.2582L159.173 85.5321C159.184 85.7512 159.189 85.9717 159.189 86.1934C159.189 86.5482 159.176 86.8999 159.15 87.2481L151.186 87.5049ZM152.083 83.3658L159.087 84.4954C158.778 81.9445 157.783 79.605 156.292 77.667L152.083 83.3658ZM149.796 82.9969L155.647 76.888C155.267 76.4607 154.86 76.0569 154.43 75.6791L148.221 81.376L148.373 82.3498C148.558 82.505 148.733 82.6727 148.895 82.8516L149.796 82.9969ZM146.812 72.2906C149.358 72.5838 151.696 73.5604 153.639 75.0324L147.869 79.1057L146.812 72.2906ZM146.049 80.391L145.035 81.1066L143.827 80.2251L144.132 72.2378C144.482 72.2115 144.836 72.1981 145.193 72.1981C145.408 72.1981 145.621 72.2029 145.834 72.2125L146.049 80.391ZM142.041 78.9222L136.729 75.0471C138.564 73.6512 140.755 72.6982 143.141 72.3475L142.041 78.9222ZM129.17 86.1934C129.17 95.043 136.344 102.217 145.193 102.217C154.043 102.217 161.217 95.043 161.217 86.1934C161.217 77.3438 154.043 70.1698 145.193 70.1698C136.344 70.1698 129.17 77.3438 129.17 86.1934ZM141.745 86.1934C141.745 88.0977 143.289 89.6415 145.193 89.6415C147.098 89.6415 148.641 88.0977 148.641 86.1934C148.641 84.2891 147.098 82.7453 145.193 82.7453C143.289 82.7453 141.745 84.2891 141.745 86.1934Z" fill="#B9AEB1"/>
<path fill-rule="evenodd" clip-rule="evenodd" d="M142.556 108.146C131.589 106.843 123.085 97.5113 123.085 86.1934C123.085 74.8755 131.589 65.5439 142.556 64.2405V62.199C130.467 63.5125 121.056 73.754 121.056 86.1934C121.056 98.6327 130.467 108.874 142.556 110.188V108.146ZM147.83 64.2405C158.797 65.5439 167.302 74.8755 167.302 86.1934C167.302 97.5113 158.797 106.843 147.83 108.146V110.188C159.92 108.874 169.33 98.6327 169.33 86.1934C169.33 73.754 159.92 63.5125 147.83 62.199V64.2405Z" fill="#4491D2"/>
</g>
</svg>
