<svg width="52.5" height="42.5" viewBox="0 0 25 21" fill="none" xmlns="http://www.w3.org/2000/svg">
<path fill-rule="evenodd" clip-rule="evenodd" d="M0 13.8018H13.6143C14.3662 13.8018 15.0842 14.1107 15.5845 14.6491C16.064 15.1652 16.2998 15.8356 16.2483 16.5368C16.1516 17.8571 15.0366 18.8916 13.7104 18.8916C12.9258 18.8916 12.1965 18.5374 11.71 17.9201C11.4097 17.5386 10.8567 17.4734 10.4758 17.7738C10.0945 18.0742 10.0288 18.6269 10.3296 19.0081C11.1514 20.0512 12.3838 20.6494 13.7104 20.6494C15.9526 20.6494 17.8374 18.8993 18.0015 16.6655C18.0891 15.4714 17.6882 14.3304 16.8723 13.4524C16.0405 12.5573 14.853 12.044 13.6143 12.044H0V13.8018ZM0 8.87607H19.5525C20.8303 8.87607 22.0554 8.34645 22.9136 7.42325C23.7551 6.51762 24.1687 5.34076 24.0784 4.10924C23.9092 1.80492 21.9648 0 19.6523 0C19.1667 0 18.7734 0.39357 18.7734 0.878906C18.7734 1.36424 19.1667 1.75781 19.6523 1.75781C21.0488 1.75781 22.2231 2.84712 22.3252 4.23792C22.3794 4.97672 22.1309 5.68283 21.6257 6.22652C21.0991 6.79324 20.3433 7.11826 19.5522 7.11826H0V8.87607Z" fill="#00A2F3"/>
</svg>
